# This file uses centimeters as units for non-parametric coordinates.

mtllib mobiel.mtl
g default
v 3.514866 0.015332 -6.163968
v -3.514866 0.015332 -6.163968
v 3.514866 0.523861 -6.163968
v -3.514866 0.523861 -6.163968
v 3.514866 0.523861 6.163968
v -3.514866 0.523861 6.163968
v 3.514866 0.015332 6.163968
v -3.514866 0.015332 6.163968
v -3.724924 0.539056 5.670934
v 3.724924 0.539056 5.670934
v 3.724924 0.000136 5.670934
v -3.724924 0.000136 5.670934
v -3.724924 0.539056 -5.709493
v 3.724924 0.539056 -5.709493
v 3.724924 0.000136 -5.709493
v -3.724924 0.000136 -5.709493
v -2.999462 0.539056 -6.532344
v -2.999462 0.539056 -5.245618
v -2.999462 0.539056 4.837462
v -2.999462 0.539056 6.532344
v -2.999462 0.000136 6.532344
v -2.999462 0.000136 5.670934
v -2.999462 0.000136 -5.709493
v -2.999462 0.000136 -6.532344
v 2.972153 0.539056 -6.532344
v 2.972153 0.539056 -5.245618
v 2.972153 0.539056 4.837462
v 2.972153 0.539056 6.532344
v 2.972153 0.000136 6.532344
v 2.972153 0.000136 5.670934
v 2.972153 0.000136 -5.709494
v 2.972153 0.000136 -6.532344
v 0.829470 0.539056 5.237463
v 0.829470 0.539056 6.132344
v -0.856779 0.539056 5.237463
v -0.856779 0.539056 6.132344
v 0.829470 0.565883 5.237463
v 0.829470 0.565883 6.132344
v -0.856779 0.565883 5.237463
v -0.856779 0.565883 6.132344
v 2.972153 0.494684 -5.245618
v 2.972153 0.494684 4.837462
v -2.999462 0.494684 -5.245618
v -2.999462 0.494684 4.837462
v 0.312084 0.352568 6.532344
v 0.312084 0.186625 6.532344
v -0.339393 0.352568 6.532344
v -0.339393 0.186625 6.532344
v 0.312084 0.352568 5.599819
v 0.312084 0.186625 5.599819
v -0.339393 0.352568 5.599819
v -0.339393 0.186625 5.599819
vt 0.375000 0.000000
vt 0.625000 0.000000
vt 0.375000 0.250000
vt 0.625000 0.250000
vt 0.375000 0.500000
vt 0.625000 0.500000
vt 0.375000 0.750000
vt 0.625000 0.750000
vt 0.375000 1.000000
vt 0.625000 1.000000
vt 0.875000 0.000000
vt 0.875000 0.250000
vt 0.125000 0.000000
vt 0.125000 0.250000
vt 0.625000 0.483516
vt 0.858516 0.250000
vt 0.141484 0.250000
vt 0.375000 0.483516
vt 0.141484 0.000000
vt 0.375000 0.766484
vt 0.625000 0.766484
vt 0.858516 0.000000
vt 0.625000 0.265746
vt 0.640746 0.250000
vt 0.359254 0.250000
vt 0.375000 0.265746
vt 0.359254 0.000000
vt 0.375000 0.984254
vt 0.625000 0.984254
vt 0.640746 0.000000
vt 0.600655 0.250000
vt 0.600655 0.265746
vt 0.600655 0.483516
vt 0.600655 0.500000
vt 0.600655 0.750000
vt 0.600655 0.766484
vt 0.600655 0.984254
vt 0.600655 0.000000
vt 0.600655 1.000000
vt 0.400261 0.250000
vt 0.400261 0.265746
vt 0.400261 0.483516
vt 0.400261 0.500000
vt 0.400261 0.750000
vt 0.400261 0.766484
vt 0.400261 0.984254
vt 0.400261 0.000000
vt 0.400261 1.000000
vt 0.400261 0.500000
vt 0.400261 0.483516
vt 0.600655 0.483516
vt 0.600655 0.500000
vt 0.400261 0.500000
vt 0.400261 0.483516
vt 0.600655 0.483516
vt 0.600655 0.500000
vt 0.400261 0.483516
vt 0.400261 0.265746
vt 0.600655 0.265746
vt 0.600655 0.483516
vt 0.400261 0.750000
vt 0.400261 0.500000
vt 0.600655 0.500000
vt 0.600655 0.750000
vt 0.400261 0.750000
vt 0.400261 0.500000
vt 0.600655 0.500000
vt 0.600655 0.750000
vn 0.561613 0.000000 -0.827400
vn 0.054256 0.000000 -0.998527
vn 0.054256 0.000000 -0.998527
vn 0.561613 0.000000 -0.827400
vn 0.010987 0.999889 -0.010052
vn 0.000483 1.000000 -0.000442
vn 0.000214 1.000000 -0.000195
vn 0.001150 0.999999 -0.001052
vn 0.561613 0.000000 0.827400
vn 0.561613 0.000000 0.827400
vn 0.561613 0.000000 0.827400
vn 0.561613 0.000000 0.827400
vn 0.000512 -1.000000 -0.000468
vn 0.000076 -1.000000 -0.000070
vn 0.000752 -1.000000 -0.000688
vn 0.015850 -0.999769 -0.014500
vn -0.907731 0.000000 -0.419553
vn -0.999856 0.000000 -0.016944
vn -0.999856 0.000000 -0.016944
vn -0.907731 0.000000 -0.419553
vn 0.999856 0.000000 -0.016944
vn 0.907731 0.000000 -0.419553
vn 0.907731 0.000000 -0.419553
vn 0.999856 0.000000 -0.016944
vn 0.001772 0.999997 0.001548
vn 0.000199 1.000000 0.000174
vn 0.001317 0.999999 0.001151
vn 0.008928 0.999930 0.007802
vn 0.919982 0.000000 0.391961
vn 0.999857 0.000000 0.016912
vn 0.999857 0.000000 0.016912
vn 0.919982 0.000000 0.391961
vn 0.015605 -0.999785 0.013637
vn 0.000751 -1.000000 0.000657
vn 0.000080 -1.000000 0.000070
vn 0.000548 -1.000000 0.000479
vn -0.999857 0.000000 0.016912
vn -0.999857 0.000000 0.016912
vn -0.919982 0.000000 0.391961
vn -0.919982 0.000000 0.391961
vn -0.000472 1.000000 -0.000416
vn -0.011467 0.999883 -0.010109
vn -0.001222 0.999999 -0.001077
vn -0.000214 1.000000 -0.000189
vn -0.000199 1.000000 0.000168
vn -0.001891 0.999997 0.001593
vn -0.001297 0.999999 0.001092
vn -0.009307 0.999926 0.007838
vn -0.581479 0.000000 0.813561
vn -0.581479 0.000000 0.813561
vn -0.581479 0.000000 0.813561
vn -0.581479 0.000000 0.813561
vn -0.000080 -1.000000 0.000067
vn -0.000735 -1.000000 0.000619
vn -0.016325 -0.999772 0.013748
vn -0.000569 -1.000000 0.000479
vn -0.000077 -1.000000 -0.000068
vn -0.000531 -1.000000 -0.000468
vn -0.000736 -1.000000 -0.000649
vn -0.016583 -0.999756 -0.014621
vn -0.054449 0.000000 -0.998517
vn -0.054449 0.000000 -0.998517
vn -0.581479 0.000000 -0.813561
vn -0.581479 0.000000 -0.813561
vn 0.000000 1.000000 0.000000
vn 0.000000 1.000000 0.000000
vn 0.000000 1.000000 0.000000
vn 0.000000 1.000000 0.000000
vn 0.000000 1.000000 0.000000
vn 0.000000 1.000000 0.000000
vn 0.000000 1.000000 0.000000
vn 0.000000 1.000000 0.000000
vn 0.000000 0.000000 1.000000
vn 0.000000 0.000000 1.000000
vn 0.000000 0.000000 1.000000
vn 0.000000 0.000000 1.000000
vn 0.000000 1.000000 0.000000
vn 0.000000 1.000000 -0.000000
vn 0.000000 1.000000 0.000000
vn 0.000000 1.000000 -0.000000
vn 1.000000 0.000000 0.000000
vn 1.000000 0.000000 0.000000
vn 1.000000 0.000000 0.000000
vn 1.000000 0.000000 0.000000
vn 0.000000 0.000000 -1.000000
vn 0.000000 0.000000 -1.000000
vn 0.000000 0.000000 -1.000000
vn 0.000000 0.000000 -1.000000
vn -1.000000 0.000000 0.000000
vn -1.000000 0.000000 0.000000
vn -1.000000 0.000000 0.000000
vn -1.000000 0.000000 0.000000
vn 0.000000 0.000000 1.000000
vn 0.000000 0.000000 1.000000
vn 0.000000 0.000000 1.000000
vn 0.000000 0.000000 1.000000
vn -1.000000 0.000000 0.000000
vn -1.000000 0.000000 0.000000
vn -1.000000 0.000000 0.000000
vn -1.000000 0.000000 0.000000
vn 0.000000 0.000000 1.000000
vn 0.000000 0.000000 1.000000
vn 0.000000 0.000000 1.000000
vn 0.000000 0.000000 1.000000
vn 1.000000 0.000000 0.000000
vn 1.000000 0.000000 0.000000
vn 1.000000 0.000000 0.000000
vn 1.000000 0.000000 0.000000
vn 0.000000 0.000000 -1.000000
vn 0.000000 0.000000 -1.000000
vn 0.000000 0.000000 -1.000000
vn 0.000000 0.000000 -1.000000
vn 0.000000 0.000000 1.000000
vn 0.000000 0.000000 1.000000
vn 0.000000 0.000000 1.000000
vn 0.000000 0.000000 1.000000
vn 0.000000 0.000000 1.000000
vn 0.000000 0.000000 1.000000
vn 0.000000 0.000000 1.000000
vn 0.000000 0.000000 1.000000
vn -1.000000 0.000000 0.000000
vn -1.000000 0.000000 0.000000
vn -1.000000 0.000000 0.000000
vn -1.000000 0.000000 0.000000
vn 0.000000 -1.000000 0.000000
vn 0.000000 -1.000000 0.000000
vn 0.000000 -1.000000 0.000000
vn 0.000000 -1.000000 0.000000
vn 1.000000 0.000000 0.000000
vn 1.000000 0.000000 0.000000
vn 1.000000 0.000000 0.000000
vn 1.000000 0.000000 0.000000
vn 0.000000 1.000000 0.000000
vn 0.000000 1.000000 0.000000
vn 0.000000 1.000000 0.000000
vn 0.000000 1.000000 0.000000
s 1
g telefoon
usemtl initialShadingGroup
f 1/1/1 32/47/2 25/40/3 3/3/4
s 2
f 3/3/5 25/40/6 26/41/7 14/26/8
s off
f 5/5/9 28/43/10 29/44/11 7/7/12
s 3
f 15/28/13 31/46/14 32/48/15 1/9/16
s 4
f 2/2/17 16/30/18 13/24/19 4/4/20
s 5
f 15/27/21 1/1/22 3/3/23 14/25/24
s 2
f 10/18/25 27/42/26 28/43/27 5/5/28
s 5
f 7/13/29 11/19/30 10/17/31 5/14/32
s 3
f 7/7/33 29/44/34 30/45/35 11/20/36
s 4
f 9/16/37 12/22/38 8/11/39 6/12/40
s 2
f 14/26/8 26/41/7 27/42/26 10/18/25
s 5
f 11/19/30 15/27/21 14/25/24 10/17/31
s 3
f 11/20/36 30/45/35 31/46/14 15/28/13
s 4
f 13/24/19 16/30/18 12/22/38 9/16/37
s 2
f 17/31/41 4/4/42 13/23/43 18/32/44
f 19/33/45 18/32/44 13/23/43 9/15/46
f 20/34/47 19/33/45 9/15/46 6/6/48
s off
f 21/35/49 20/34/50 6/6/51 8/8/52
s 3
f 22/36/53 21/35/54 8/8/55 12/21/56
f 23/37/57 22/36/53 12/21/56 16/29/58
f 24/39/59 23/37/57 16/29/58 2/10/60
s 1
f 17/31/61 24/38/62 2/2/63 4/4/64
s 2
f 25/40/6 17/31/41 18/32/44 26/41/7
s off
f 42/57/65 41/58/66 43/59/67 44/60/68
f 38/53/69 37/54/70 39/55/71 40/56/72
f 50/65/73 49/66/74 51/67/75 52/68/76
s 3
f 30/45/35 29/44/34 21/35/54 22/36/53
f 31/46/14 30/45/35 22/36/53 23/37/57
f 32/48/15 31/46/14 23/37/57 24/39/59
s 1
f 25/40/3 32/47/2 24/38/62 17/31/61
s 2
f 28/43/27 27/42/26 33/50/77 34/49/78
f 27/42/26 19/33/45 35/51/79 33/50/77
f 19/33/45 20/34/47 36/52/80 35/51/79
f 20/34/47 28/43/27 34/49/78 36/52/80
s off
f 34/49/81 33/50/82 37/54/83 38/53/84
f 33/50/85 35/51/86 39/55/87 37/54/88
f 35/51/89 36/52/90 40/56/91 39/55/92
f 36/52/93 34/49/94 38/53/95 40/56/96
f 27/42/97 26/41/98 41/58/99 42/57/100
f 26/41/101 18/32/102 43/59/103 41/58/104
f 18/32/105 19/33/106 44/60/107 43/59/108
f 19/33/109 27/42/110 42/57/111 44/60/112
s 8
f 29/44/113 28/43/114 45/62/115 46/61/116
f 28/43/114 20/34/117 47/63/118 45/62/115
f 20/34/117 21/35/119 48/64/120 47/63/118
f 21/35/119 29/44/113 46/61/116 48/64/120
s off
f 46/61/121 45/62/122 49/66/123 50/65/124
f 45/62/125 47/63/126 51/67/127 49/66/128
f 47/63/129 48/64/130 52/68/131 51/67/132
f 48/64/133 46/61/134 50/65/135 52/68/136
