# This file uses centimeters as units for non-parametric coordinates.

mtllib afstandsbediening.mtl
g default
v -0.254220 0.095865 -0.059515
v -0.242481 0.095865 -0.047775
v -0.242481 0.107605 -0.059515
v -0.185687 0.107605 -0.059515
v -0.185687 0.095865 -0.047775
v -0.173948 0.095865 -0.059515
v -0.254220 0.095865 -0.116308
v -0.242481 0.107605 -0.116308
v -0.242481 0.095865 -0.128047
v -0.185687 0.095865 -0.128047
v -0.185687 0.107605 -0.116308
v -0.173948 0.095865 -0.116308
v -0.242481 0.084123 -0.047775
v -0.254220 0.084123 -0.059515
v -0.173948 0.084123 -0.059515
v -0.185687 0.084123 -0.047775
v -0.254220 0.084123 -0.116308
v -0.242481 0.084123 -0.128047
v -0.185687 0.084123 -0.128047
v -0.173948 0.084123 -0.116308
v -0.277712 0.000000 0.000000
v -0.298740 0.021029 0.021029
v 0.021029 0.021029 0.021029
v 0.000000 0.000000 0.000000
v -0.298740 0.063094 0.021029
v -0.277712 0.084123 0.000000
v 0.000000 0.084123 0.000000
v 0.021029 0.063094 0.021029
v -0.277712 0.084123 -0.597481
v -0.298740 0.063094 -0.618509
v 0.000000 0.084123 -0.597481
v 0.021029 0.063094 -0.618509
v -0.298740 0.021029 -0.618509
v -0.277712 0.000000 -0.597481
v 0.000000 0.000000 -0.597481
v 0.021029 0.021029 -0.618509
v -0.085159 0.095865 -0.059515
v -0.073419 0.095865 -0.047775
v -0.073419 0.107605 -0.059515
v -0.016626 0.107605 -0.059515
v -0.016626 0.095865 -0.047775
v -0.004886 0.095865 -0.059515
v -0.085159 0.095865 -0.116308
v -0.073419 0.107605 -0.116308
v -0.073419 0.095865 -0.128047
v -0.016626 0.095865 -0.128047
v -0.016626 0.107605 -0.116308
v -0.004886 0.095865 -0.116308
v -0.073419 0.084123 -0.047775
v -0.085159 0.084123 -0.059515
v -0.004886 0.084123 -0.059515
v -0.016626 0.084123 -0.047775
v -0.085159 0.084123 -0.116308
v -0.073419 0.084123 -0.128047
v -0.016626 0.084123 -0.128047
v -0.004886 0.084123 -0.116308
vt 0.375000 0.286563
vt 0.375000 0.463437
vt 0.338437 0.125013
vt 0.338437 0.000000
vt 0.411563 0.125013
vt 0.625000 0.286563
vt 0.588437 0.125013
vt 0.588437 0.000000
vt 0.375000 0.624987
vt 0.411563 0.750000
vt 0.375000 0.750000
vt 0.411563 0.463437
vt 0.588437 0.463437
vt 0.625000 0.624987
vt 0.625000 0.750000
vt 0.411563 0.000000
vt 0.411563 0.286563
vt 0.588437 0.286563
vt 0.411563 0.624987
vt 0.588437 0.624987
vt 0.588437 0.750000
vt 0.661563 0.125013
vt 0.661563 0.000000
vt 0.838437 0.000000
vt 0.838437 0.125013
vt 0.161563 0.125013
vt 0.161563 0.000000
vt 0.625000 0.463437
vt 0.391441 0.991780
vt 0.375000 1.000000
vt 0.375000 0.687506
vt 0.391441 0.758220
vt 0.375000 0.062494
vt 0.391441 0.000000
vt 0.608559 -0.000000
vt 0.625000 0.062494
vt 0.625000 1.000000
vt 0.608559 0.991780
vt 0.608559 0.758220
vt 0.625000 0.687506
vt 0.375000 0.187506
vt 0.391441 0.258220
vt 0.391441 0.491780
vt 0.375000 0.562494
vt 0.625000 0.187506
vt 0.608559 0.258220
vt 0.625000 0.562494
vt 0.608559 0.491780
vt 0.875000 0.062494
vt 0.875000 0.187506
vt 0.125000 0.062494
vt 0.125000 0.187506
vt 0.375000 0.286563
vt 0.411563 0.286563
vt 0.411563 0.463437
vt 0.375000 0.463437
vt 0.411563 0.125013
vt 0.338437 0.125013
vt 0.338437 0.000000
vt 0.411563 0.000000
vt 0.588437 0.125013
vt 0.588437 0.286563
vt 0.625000 0.286563
vt 0.625000 0.463437
vt 0.588437 0.463437
vt 0.661563 0.125013
vt 0.588437 0.000000
vt 0.661563 0.000000
vt 0.375000 0.624987
vt 0.411563 0.624987
vt 0.411563 0.750000
vt 0.375000 0.750000
vt 0.588437 0.624987
vt 0.625000 0.624987
vt 0.625000 0.750000
vt 0.588437 0.750000
vt 0.838437 0.000000
vt 0.838437 0.125013
vt 0.161563 0.125013
vt 0.161563 0.000000
vn -0.707108 0.707106 0.000000
vn -0.707108 0.707106 0.000000
vn -0.707108 0.707106 0.000000
vn -0.707108 0.707106 0.000000
vn -0.707106 0.000000 0.707107
vn -0.707106 0.000000 0.707107
vn -0.707106 0.000000 0.707107
vn -0.707106 0.000000 0.707107
vn 0.000000 0.707106 0.707108
vn 0.000000 0.707106 0.707108
vn 0.000000 0.707106 0.707108
vn 0.000000 0.707106 0.707108
vn 0.707109 0.707105 0.000000
vn 0.707109 0.707105 0.000000
vn 0.707109 0.707105 0.000000
vn 0.707109 0.707105 0.000000
vn 0.707107 -0.000001 0.707107
vn 0.707107 -0.000001 0.707107
vn 0.707107 -0.000001 0.707107
vn 0.707107 -0.000001 0.707107
vn -0.707107 0.000000 -0.707106
vn -0.707107 0.000000 -0.707106
vn -0.707107 0.000000 -0.707106
vn -0.707107 0.000000 -0.707106
vn 0.000000 0.707107 -0.707107
vn 0.000000 0.707107 -0.707107
vn 0.000000 0.707107 -0.707107
vn 0.000000 0.707107 -0.707107
vn 0.707107 -0.000001 -0.707106
vn 0.707107 -0.000001 -0.707106
vn 0.707107 -0.000001 -0.707106
vn 0.707107 -0.000001 -0.707106
vn 0.000000 0.000000 1.000000
vn 0.000000 0.000000 1.000000
vn 0.000000 0.000000 1.000000
vn 0.000000 0.000000 1.000000
vn 0.000000 1.000000 -0.000000
vn 0.000000 1.000000 -0.000000
vn 0.000000 1.000000 -0.000000
vn 0.000000 1.000000 -0.000000
vn 0.000000 0.000000 -1.000000
vn 0.000000 0.000000 -1.000000
vn 0.000000 0.000000 -1.000000
vn 0.000000 0.000000 -1.000000
vn 1.000000 -0.000001 -0.000000
vn 1.000000 -0.000001 -0.000000
vn 1.000000 -0.000001 -0.000000
vn 1.000000 -0.000001 -0.000000
vn -1.000000 0.000000 0.000000
vn -1.000000 0.000000 0.000000
vn -1.000000 0.000000 0.000000
vn -1.000000 0.000000 0.000000
vn -0.577350 0.577350 0.577351
vn -0.577350 0.577350 0.577351
vn -0.577350 0.577350 0.577351
vn 0.577351 0.577348 0.577351
vn 0.577351 0.577348 0.577351
vn 0.577351 0.577348 0.577351
vn -0.577351 0.577350 -0.577351
vn -0.577351 0.577350 -0.577351
vn -0.577351 0.577350 -0.577351
vn 0.577351 0.577348 -0.577351
vn 0.577351 0.577348 -0.577351
vn 0.577351 0.577348 -0.577351
vn -0.707107 -0.707107 0.000000
vn -0.707107 -0.707107 0.000000
vn -0.707107 -0.707107 0.000000
vn -0.707107 -0.707107 0.000000
vn 0.000000 -0.707107 0.707107
vn 0.000000 -0.707107 0.707107
vn 0.000000 -0.707107 0.707107
vn 0.000000 -0.707107 0.707107
vn 0.707107 -0.707107 0.000000
vn 0.707107 -0.707107 0.000000
vn 0.707107 -0.707107 0.000000
vn 0.707107 -0.707107 0.000000
vn -0.707107 0.707107 0.000000
vn -0.707107 0.707107 0.000000
vn -0.707107 0.707107 0.000000
vn -0.707107 0.707107 0.000000
vn 0.000000 0.707107 0.707107
vn 0.000000 0.707107 0.707107
vn 0.000000 0.707107 0.707107
vn 0.000000 0.707107 0.707107
vn 0.707107 0.707107 0.000000
vn 0.707107 0.707107 0.000000
vn 0.707107 0.707107 0.000000
vn 0.707107 0.707107 0.000000
vn 0.000000 0.707106 -0.707108
vn 0.000000 0.707106 -0.707108
vn 0.000000 0.707106 -0.707108
vn 0.000000 0.707106 -0.707108
vn 0.000000 -0.707106 -0.707108
vn 0.000000 -0.707106 -0.707108
vn 0.000000 -0.707106 -0.707108
vn 0.000000 -0.707106 -0.707108
vn 0.000000 0.000000 1.000000
vn 0.000000 0.000000 1.000000
vn 0.000000 0.000000 1.000000
vn 0.000000 0.000000 1.000000
vn 0.000000 1.000000 0.000000
vn 0.000000 1.000000 0.000000
vn 0.000000 1.000000 0.000000
vn 0.000000 1.000000 0.000000
vn 0.000000 0.000000 -1.000000
vn 0.000000 0.000000 -1.000000
vn 0.000000 0.000000 -1.000000
vn 0.000000 0.000000 -1.000000
vn 0.000000 -1.000000 0.000000
vn 0.000000 -1.000000 0.000000
vn 0.000000 -1.000000 0.000000
vn 0.000000 -1.000000 0.000000
vn 1.000000 0.000000 0.000000
vn 1.000000 0.000000 0.000000
vn 1.000000 0.000000 0.000000
vn 1.000000 0.000000 0.000000
vn -1.000000 0.000000 0.000000
vn -1.000000 0.000000 0.000000
vn -1.000000 0.000000 0.000000
vn -1.000000 0.000000 0.000000
vn -0.707108 0.707106 0.000000
vn -0.707108 0.707106 0.000000
vn -0.707108 0.707106 0.000000
vn -0.707108 0.707106 0.000000
vn -0.707107 0.000000 0.707107
vn -0.707107 0.000000 0.707107
vn -0.707107 0.000000 0.707107
vn -0.707107 0.000000 0.707107
vn 0.000000 0.707106 0.707108
vn 0.000000 0.707106 0.707108
vn 0.000000 0.707106 0.707108
vn 0.000000 0.707106 0.707108
vn 0.707108 0.707105 0.000000
vn 0.707108 0.707105 0.000000
vn 0.707108 0.707105 0.000000
vn 0.707108 0.707105 0.000000
vn 0.707107 -0.000001 0.707107
vn 0.707107 -0.000001 0.707107
vn 0.707107 -0.000001 0.707107
vn 0.707107 -0.000001 0.707107
vn -0.707107 0.000000 -0.707106
vn -0.707107 0.000000 -0.707106
vn -0.707107 0.000000 -0.707106
vn -0.707107 0.000000 -0.707106
vn 0.000000 0.707106 -0.707107
vn 0.000000 0.707106 -0.707107
vn 0.000000 0.707106 -0.707107
vn 0.000000 0.707106 -0.707107
vn 0.707107 -0.000001 -0.707107
vn 0.707107 -0.000001 -0.707107
vn 0.707107 -0.000001 -0.707107
vn 0.707107 -0.000001 -0.707107
vn 0.000000 0.000000 1.000000
vn 0.000000 0.000000 1.000000
vn 0.000000 0.000000 1.000000
vn 0.000000 0.000000 1.000000
vn 0.000000 1.000000 0.000000
vn 0.000000 1.000000 0.000000
vn 0.000000 1.000000 0.000000
vn 0.000000 1.000000 0.000000
vn 0.000000 0.000000 -1.000000
vn 0.000000 0.000000 -1.000000
vn 0.000000 0.000000 -1.000000
vn 0.000000 0.000000 -1.000000
vn 1.000000 -0.000002 -0.000000
vn 1.000000 -0.000002 -0.000000
vn 1.000000 -0.000002 -0.000000
vn 1.000000 -0.000002 -0.000000
vn -1.000000 0.000000 0.000000
vn -1.000000 0.000000 0.000000
vn -1.000000 0.000000 0.000000
vn -1.000000 0.000000 0.000000
vn -0.577351 0.577349 0.577351
vn -0.577351 0.577349 0.577351
vn -0.577351 0.577349 0.577351
vn 0.577351 0.577349 0.577351
vn 0.577351 0.577349 0.577351
vn 0.577351 0.577349 0.577351
vn -0.577351 0.577349 -0.577350
vn -0.577351 0.577349 -0.577350
vn -0.577351 0.577349 -0.577350
vn 0.577351 0.577349 -0.577351
vn 0.577351 0.577349 -0.577351
vn 0.577351 0.577349 -0.577351
s off
g Afstandsbediening
usemtl initialShadingGroup
f 1/1/1 3/17/2 8/12/3 7/2/4
f 2/5/5 1/3/6 14/4/7 13/16/8
f 3/17/9 2/5/10 5/7/11 4/18/12
f 4/18/13 6/6/14 12/28/15 11/13/16
f 6/22/17 5/7/18 16/8/19 15/23/20
f 7/9/21 9/19/22 18/10/23 17/11/24
f 9/19/25 8/12/26 11/13/27 10/20/28
f 10/20/29 12/14/30 20/15/31 19/21/32
f 2/5/33 13/16/34 16/8/35 5/7/36
f 3/17/37 4/18/38 11/13/39 8/12/40
f 9/19/41 10/20/42 19/21/43 18/10/44
f 6/22/45 15/23/46 20/24/47 12/25/48
f 7/26/49 17/27/50 14/4/51 1/3/52
f 1/3/53 2/5/54 3/17/55
f 4/18/56 5/7/57 6/22/58
f 7/2/59 8/12/60 9/19/61
f 10/20/62 11/13/63 12/28/64
f 21/29/65 22/30/66 33/31/67 34/32/68
f 22/33/69 21/34/70 24/35/71 23/36/72
f 23/37/73 24/38/74 35/39/75 36/40/76
f 25/41/77 26/42/78 29/43/79 30/44/80
f 26/42/81 25/41/82 28/45/83 27/46/84
f 27/46/85 28/45/86 32/47/87 31/48/88
f 30/44/89 29/43/90 31/48/91 32/47/92
f 34/32/93 33/31/94 36/40/95 35/39/96
f 22/33/97 23/36/98 28/45/99 25/41/100
f 26/42/101 27/46/102 31/48/103 29/43/104
f 30/44/105 32/47/106 36/40/107 33/31/108
f 34/32/109 35/39/110 24/38/111 21/29/112
f 23/36/113 36/49/114 32/50/115 28/45/116
f 33/51/117 22/33/118 25/41/119 30/52/120
f 37/53/121 39/54/122 44/55/123 43/56/124
f 38/57/125 37/58/126 50/59/127 49/60/128
f 39/54/129 38/57/130 41/61/131 40/62/132
f 40/62/133 42/63/134 48/64/135 47/65/136
f 42/66/137 41/61/138 52/67/139 51/68/140
f 43/69/141 45/70/142 54/71/143 53/72/144
f 45/70/145 44/55/146 47/65/147 46/73/148
f 46/73/149 48/74/150 56/75/151 55/76/152
f 38/57/153 49/60/154 52/67/155 41/61/156
f 39/54/157 40/62/158 47/65/159 44/55/160
f 45/70/161 46/73/162 55/76/163 54/71/164
f 42/66/165 51/68/166 56/77/167 48/78/168
f 43/79/169 53/80/170 50/59/171 37/58/172
f 37/58/173 38/57/174 39/54/175
f 40/62/176 41/61/177 42/66/178
f 43/56/179 44/55/180 45/70/181
f 46/73/182 47/65/183 48/64/184
