# This file uses centimeters as units for non-parametric coordinates.

mtllib carpet.mtl
g default
v -6.799995 0.000005 0.000000
v 0.000000 0.000005 0.000000
v -6.799995 0.000005 -9.799995
v 0.000000 0.000005 -9.799995
v -6.786599 0.050005 -0.013396
v -6.750000 0.086604 -0.049995
v -6.700005 0.100000 -0.099990
v -0.099990 0.100000 -0.099990
v -0.049995 0.086604 -0.049995
v -0.013396 0.050005 -0.013396
v -6.700005 0.100000 -9.700005
v -6.750000 0.086604 -9.750000
v -6.786599 0.050005 -9.786598
v -0.099990 0.100000 -9.700005
v -0.049995 0.086604 -9.750000
v -0.013396 0.050005 -9.786598
vt 0.625000 0.749987
vt 0.625000 0.000013
vt 0.375000 0.000013
vt 0.379347 0.253333
vt 0.620653 0.253333
vt 0.620653 0.496667
vt 0.375000 0.749987
vt 0.875000 0.000013
vt 0.125000 0.000013
vt 0.379347 0.496667
vt 0.375000 0.250000
vt 0.377817 0.252044
vt 0.622183 0.252044
vt 0.625000 0.250000
vt 0.377817 0.497956
vt 0.375000 0.500000
vt 0.125000 0.250000
vt 0.622183 0.497956
vt 0.625000 0.500000
vt 0.875000 0.250000
vn -0.002981 0.999993 0.002054
vn -0.077192 0.887569 0.454161
vn 0.077191 0.887570 0.454159
vn 0.002981 0.999994 0.002054
vn 0.000000 0.425151 0.905122
vn 0.000000 0.425151 0.905123
vn 0.000000 0.258795 0.965932
vn 0.000000 0.258795 0.965932
vn 0.002981 0.999993 -0.002054
vn -0.002981 0.999993 -0.002054
vn 0.965932 0.258795 0.000000
vn 0.965932 0.258795 0.000000
vn 0.965932 0.258795 0.000000
vn 0.965932 0.258795 0.000000
vn 0.155767 0.981944 -0.107343
vn 0.707107 0.707107 0.000000
vn 0.707107 0.707107 0.000000
vn 0.707107 0.707107 0.000000
vn 0.707107 0.707107 0.000000
vn -0.965928 0.258811 0.000000
vn -0.905003 0.425406 0.000000
vn -0.905003 0.425406 0.000000
vn -0.965928 0.258811 0.000000
vn -0.707109 0.707104 0.000000
vn -0.707109 0.707104 0.000000
vn -0.155768 0.981944 -0.107344
vn 0.000000 0.258815 -0.965927
vn 0.000000 0.425159 -0.905119
vn 0.000000 0.425159 -0.905119
vn 0.000000 0.258815 -0.965927
vn 0.000000 0.707100 -0.707113
vn 0.000000 0.707100 -0.707113
s 1
g Carpet
usemtl initialShadingGroup
f 7/4/1 6/12/2 9/13/3 8/5/4
f 6/12/2 5/11/5 10/14/6 9/13/3
f 5/11/5 1/3/7 2/2/8 10/14/6
f 7/4/1 8/5/4 14/6/9 11/10/10
s off
f 10/14/11 2/2/12 4/8/13 16/20/14
s 1
f 8/5/4 9/13/3 15/18/15 14/6/9
s off
f 9/13/16 10/14/17 16/19/18 15/18/19
s 2
f 1/3/20 5/11/21 13/17/22 3/9/23
f 5/11/21 6/12/24 12/15/25 13/16/22
s 1
f 6/12/2 7/4/1 11/10/10 12/15/26
s 3
f 3/7/27 13/16/28 16/19/29 4/1/30
f 13/16/28 12/15/31 15/18/32 16/19/29
s 1
f 12/15/26 11/10/10 14/6/9 15/18/15
