# This file uses centimeters as units for non-parametric coordinates.

mtllib klok.mtl
g default
v -0.084759 1.835886 0.116266
v 0.084759 1.835886 0.116266
v -0.001354 3.054898 0.002962
v -0.084759 1.835886 -0.004467
v 0.084759 1.835886 -0.004467
v 0.084759 2.775372 0.061865
v -0.084759 2.775372 0.061865
v -0.084759 2.775372 -0.004467
v 0.084759 2.775372 -0.004467
v 1.544023 2.673320 -0.681808
v 0.891442 3.325900 -0.681808
v 0.000000 3.564759 -0.681808
v -0.891442 3.325900 -0.681808
v -1.544023 2.673320 -0.681808
v -1.782884 1.781877 -0.681808
v -1.544023 0.890434 -0.681808
v -0.891442 0.237854 -0.681808
v 0.000000 -0.001007 -0.681808
v 0.891442 0.237854 -0.681808
v 1.544023 0.890434 -0.681808
v 1.782884 1.781877 -0.681808
v 1.544023 2.673320 0.104737
v 0.891442 3.325900 0.104737
v 0.000000 3.564759 0.104737
v -0.891442 3.325900 0.104737
v -1.544023 2.673320 0.104737
v -1.782884 1.781877 0.104737
v -1.544023 0.890434 0.104737
v -0.891442 0.237854 0.104737
v 0.000000 -0.001007 0.104737
v 0.891442 0.237854 0.104737
v 1.544023 0.890434 0.104737
v 1.782884 1.781877 0.104737
v 0.000000 1.781877 -0.681808
v 1.282384 2.522262 0.104737
v 0.740385 3.064260 0.104737
v 0.000000 3.262644 0.104737
v -0.740385 3.064260 0.104737
v -1.282384 2.522262 0.104737
v -1.480770 1.781877 0.104737
v -1.282384 1.041492 0.104737
v -0.740385 0.499495 0.104737
v 0.000000 0.301108 0.104737
v 0.740385 0.499495 0.104737
v 1.282384 1.041492 0.104737
v 1.480770 1.781877 0.104737
v 1.282384 2.522262 -0.061823
v 0.740385 3.064260 -0.061823
v 0.000000 1.781877 -0.061823
v 0.000000 3.262644 -0.061823
v -0.740385 3.064260 -0.061823
v -1.282384 2.522262 -0.061823
v -1.480770 1.781877 -0.061823
v -1.282384 1.041492 -0.061823
v -0.740385 0.499495 -0.061823
v 0.000000 0.301108 -0.061823
v 0.740385 0.499495 -0.061823
v 1.282384 1.041492 -0.061823
v 1.480770 1.781877 -0.061823
v 0.032388 1.965240 0.116266
v 0.032388 1.795724 0.116266
v 0.925551 1.881836 0.002962
v 0.032388 1.965240 -0.004467
v 0.032388 1.795724 -0.004467
v 0.720744 1.795724 0.061865
v 0.720744 1.965240 0.061865
v 0.720744 1.965240 -0.004467
v 0.720744 1.795724 -0.004467
v -0.086147 1.790878 0.111613
v 0.086147 1.790878 0.111613
v -0.086147 1.963173 0.111613
v 0.086147 1.963173 0.111613
v -0.086147 1.963173 -0.060681
v 0.086147 1.963173 -0.060681
v -0.086147 1.790878 -0.060681
v 0.086147 1.790878 -0.060681
vt 0.375000 0.000000
vt 0.625000 0.000000
vt 0.307070 0.331683
vt 0.375000 0.750000
vt 0.625000 0.750000
vt 0.375000 1.000000
vt 0.625000 1.000000
vt 0.875000 0.000000
vt 0.125000 0.000000
vt 0.625000 0.192674
vt 0.375000 0.192674
vt 0.125000 0.192674
vt 0.375000 0.557326
vt 0.625000 0.557326
vt 0.875000 0.192674
vt 0.375000 0.312500
vt 0.395833 0.312500
vt 0.395833 0.688440
vt 0.375000 0.688440
vt 0.416667 0.312500
vt 0.416667 0.688440
vt 0.437500 0.312500
vt 0.437500 0.688440
vt 0.458333 0.312500
vt 0.458333 0.688440
vt 0.479167 0.312500
vt 0.479167 0.688440
vt 0.500000 0.312500
vt 0.500000 0.688440
vt 0.520833 0.312500
vt 0.520833 0.688440
vt 0.541667 0.312500
vt 0.541667 0.688440
vt 0.562500 0.312500
vt 0.562500 0.688440
vt 0.583333 0.312500
vt 0.583333 0.688440
vt 0.604167 0.312500
vt 0.604167 0.688440
vt 0.625000 0.312500
vt 0.625000 0.688440
vt 0.578125 0.020934
vt 0.635316 0.078125
vt 0.500000 0.150000
vt 0.500000 0.000000
vt 0.421875 0.020934
vt 0.364684 0.078125
vt 0.343750 0.156250
vt 0.364684 0.234375
vt 0.421875 0.291566
vt 0.500000 0.312500
vt 0.578125 0.291566
vt 0.635316 0.234375
vt 0.656250 0.156250
vt 0.635316 0.921875
vt 0.578125 0.979066
vt 0.500000 0.837500
vt 0.500000 1.000000
vt 0.421875 0.979066
vt 0.364684 0.921875
vt 0.343750 0.843750
vt 0.364684 0.765625
vt 0.421875 0.708434
vt 0.500000 0.687500
vt 0.578125 0.708434
vt 0.635316 0.765625
vt 0.656250 0.843750
vt 0.635316 0.921875
vt 0.578125 0.979066
vt 0.578125 0.979066
vt 0.635316 0.921875
vt 0.500000 1.000000
vt 0.500000 1.000000
vt 0.421875 0.979066
vt 0.421875 0.979066
vt 0.364684 0.921875
vt 0.364684 0.921875
vt 0.343750 0.843750
vt 0.343750 0.843750
vt 0.364684 0.765625
vt 0.364684 0.765625
vt 0.421875 0.708434
vt 0.421875 0.708434
vt 0.500000 0.687500
vt 0.500000 0.687500
vt 0.578125 0.708434
vt 0.578125 0.708434
vt 0.635316 0.765625
vt 0.635316 0.765625
vt 0.656250 0.843750
vt 0.656250 0.843750
vt 0.375000 0.000000
vt 0.625000 0.000000
vt 0.625000 0.192674
vt 0.375000 0.192674
vt 0.375000 0.557326
vt 0.625000 0.557326
vt 0.625000 0.750000
vt 0.375000 0.750000
vt 0.625000 1.000000
vt 0.375000 1.000000
vt 0.875000 0.000000
vt 0.875000 0.192674
vt 0.125000 0.000000
vt 0.125000 0.192674
vt 0.307070 0.331683
vt 0.375000 0.000000
vt 0.625000 0.000000
vt 0.625000 0.250000
vt 0.375000 0.250000
vt 0.625000 0.500000
vt 0.375000 0.500000
vt 0.625000 0.750000
vt 0.375000 0.750000
vt 0.625000 1.000000
vt 0.375000 1.000000
vt 0.875000 0.000000
vt 0.875000 0.250000
vt 0.125000 0.000000
vt 0.125000 0.250000
vn 0.000000 0.057807 0.998328
vn 0.000000 0.057807 0.998328
vn 0.000000 0.074199 0.997244
vn 0.000000 0.074299 0.997236
vn 0.000000 0.002875 -0.999996
vn 0.000000 0.002857 -0.999996
vn 0.000000 0.000000 -1.000000
vn 0.000000 0.000000 -1.000000
vn 0.000000 -1.000000 0.000000
vn 0.000000 -1.000000 0.000000
vn 0.000000 -1.000000 0.000000
vn 0.000000 -1.000000 0.000000
vn 1.000000 -0.000000 0.000000
vn 1.000000 -0.000000 0.000000
vn 0.999581 0.028958 0.000000
vn 0.999684 0.025139 0.000000
vn -1.000000 -0.000000 0.000000
vn -1.000000 -0.000000 0.000000
vn -0.999704 0.024340 0.000000
vn -0.999607 0.028046 0.000000
vn 0.000000 0.206198 0.978510
vn -0.958253 0.285921 0.000000
vn 0.000000 0.026566 -0.999647
vn 0.955678 0.294414 0.000000
vn 0.707106 0.707107 0.000000
vn 0.707106 0.707107 0.000000
vn 0.707106 0.707107 0.000000
vn 0.707106 0.707107 0.000000
vn 0.258817 0.965926 0.000000
vn 0.258817 0.965926 0.000000
vn 0.258817 0.965926 0.000000
vn 0.258817 0.965926 0.000000
vn -0.258817 0.965926 0.000000
vn -0.258817 0.965926 0.000000
vn -0.258817 0.965926 0.000000
vn -0.258817 0.965926 0.000000
vn -0.707106 0.707107 0.000000
vn -0.707106 0.707107 0.000000
vn -0.707106 0.707107 0.000000
vn -0.707106 0.707107 0.000000
vn -0.965926 0.258819 0.000000
vn -0.965926 0.258819 0.000000
vn -0.965926 0.258819 0.000000
vn -0.965926 0.258819 0.000000
vn -0.965926 -0.258819 0.000000
vn -0.965926 -0.258819 0.000000
vn -0.965926 -0.258819 0.000000
vn -0.965926 -0.258819 0.000000
vn -0.707106 -0.707107 0.000000
vn -0.707106 -0.707107 0.000000
vn -0.707106 -0.707107 0.000000
vn -0.707106 -0.707107 0.000000
vn -0.258819 -0.965926 0.000000
vn -0.258819 -0.965926 0.000000
vn -0.258819 -0.965926 0.000000
vn -0.258819 -0.965926 0.000000
vn 0.258819 -0.965926 0.000000
vn 0.258819 -0.965926 0.000000
vn 0.258819 -0.965926 0.000000
vn 0.258819 -0.965926 0.000000
vn 0.707106 -0.707107 0.000000
vn 0.707106 -0.707107 0.000000
vn 0.707106 -0.707107 0.000000
vn 0.707106 -0.707107 0.000000
vn 0.965926 -0.258819 0.000000
vn 0.965926 -0.258819 0.000000
vn 0.965926 -0.258819 0.000000
vn 0.965926 -0.258819 0.000000
vn 0.965926 0.258819 0.000000
vn 0.965926 0.258819 0.000000
vn 0.965926 0.258819 0.000000
vn 0.965926 0.258819 0.000000
vn -0.000000 0.000000 -1.000000
vn 0.000000 0.000000 -1.000000
vn -0.000000 0.000000 -1.000000
vn 0.000000 0.000000 -1.000000
vn 0.000000 0.000000 -1.000000
vn -0.000000 0.000000 -1.000000
vn 0.000000 0.000000 -1.000000
vn 0.000000 0.000000 -1.000000
vn 0.000000 0.000000 -1.000000
vn 0.000000 0.000000 -1.000000
vn 0.000000 0.000000 -1.000000
vn 0.000000 0.000000 -1.000000
vn 0.000000 0.000000 -1.000000
vn -0.000000 0.000000 1.000000
vn 0.000000 0.000000 1.000000
vn 0.000000 0.000000 1.000000
vn 0.000000 0.000000 1.000000
vn 0.000000 0.000000 1.000000
vn 0.000000 0.000000 1.000000
vn 0.000000 0.000000 1.000000
vn 0.000000 0.000000 1.000000
vn 0.000000 0.000000 1.000000
vn 0.000000 0.000000 1.000000
vn 0.000000 0.000000 1.000000
vn 0.000000 0.000000 1.000000
vn 0.000000 0.000000 1.000000
vn 0.000000 0.000000 1.000000
vn 0.000000 0.000000 1.000000
vn 0.000000 0.000000 1.000000
vn 0.000000 0.000000 1.000000
vn 0.000000 0.000000 1.000000
vn 0.000000 0.000000 1.000000
vn 0.000000 0.000000 1.000000
vn 0.000000 0.000000 1.000000
vn 0.000000 0.000000 1.000000
vn 0.000000 0.000000 1.000000
vn -0.000000 0.000000 1.000000
vn -0.000000 0.000000 1.000000
vn -0.000000 0.000000 1.000000
vn -0.000000 0.000000 1.000000
vn -0.000000 0.000000 1.000000
vn -0.000000 0.000000 1.000000
vn 0.000000 0.000000 1.000000
vn 0.000000 0.000000 1.000000
vn 0.000000 0.000000 1.000000
vn 0.000000 0.000000 1.000000
vn 0.000000 0.000000 1.000000
vn 0.000000 0.000000 1.000000
vn 0.000000 0.000000 1.000000
vn 0.000000 0.000000 1.000000
vn -0.707107 -0.707107 0.000000
vn -0.707107 -0.707107 0.000000
vn -0.707107 -0.707107 0.000000
vn -0.707107 -0.707107 0.000000
vn -0.258816 -0.965927 0.000000
vn -0.258816 -0.965927 0.000000
vn -0.258816 -0.965927 0.000000
vn -0.258816 -0.965927 0.000000
vn 0.258816 -0.965927 0.000000
vn 0.258816 -0.965927 0.000000
vn 0.258816 -0.965927 0.000000
vn 0.258816 -0.965927 0.000000
vn 0.707107 -0.707107 0.000000
vn 0.707107 -0.707107 0.000000
vn 0.707107 -0.707107 0.000000
vn 0.707107 -0.707107 0.000000
vn 0.965926 -0.258819 0.000000
vn 0.965926 -0.258819 0.000000
vn 0.965926 -0.258819 0.000000
vn 0.965926 -0.258819 0.000000
vn 0.965926 0.258819 0.000000
vn 0.965926 0.258819 0.000000
vn 0.965926 0.258819 0.000000
vn 0.965926 0.258819 0.000000
vn 0.707106 0.707108 0.000000
vn 0.707106 0.707108 0.000000
vn 0.707106 0.707108 0.000000
vn 0.707106 0.707108 0.000000
vn 0.258820 0.965926 0.000000
vn 0.258820 0.965926 0.000000
vn 0.258820 0.965926 0.000000
vn 0.258820 0.965926 0.000000
vn -0.258820 0.965926 0.000000
vn -0.258820 0.965926 0.000000
vn -0.258820 0.965926 0.000000
vn -0.258820 0.965926 0.000000
vn -0.707106 0.707108 0.000000
vn -0.707106 0.707108 0.000000
vn -0.707106 0.707108 0.000000
vn -0.707106 0.707108 0.000000
vn -0.965926 0.258819 0.000000
vn -0.965926 0.258819 0.000000
vn -0.965926 0.258819 0.000000
vn -0.965926 0.258819 0.000000
vn -0.965926 -0.258819 0.000000
vn -0.965926 -0.258819 0.000000
vn -0.965926 -0.258819 0.000000
vn -0.965926 -0.258819 0.000000
vn 0.078783 0.000000 0.996892
vn 0.078783 0.000000 0.996892
vn 0.099606 0.000000 0.995027
vn 0.099778 0.000000 0.995010
vn 0.003658 0.000000 -0.999993
vn 0.003626 0.000000 -0.999994
vn 0.000000 0.000000 -1.000000
vn 0.000000 0.000000 -1.000000
vn -1.000000 0.000000 0.000000
vn -1.000000 0.000000 0.000000
vn -1.000000 0.000000 0.000000
vn -1.000000 0.000000 0.000000
vn 0.000000 -1.000000 0.000000
vn 0.000000 -1.000000 0.000000
vn 0.039322 -0.999227 0.000000
vn 0.032523 -0.999471 0.000000
vn 0.000000 1.000000 0.000000
vn 0.000000 1.000000 0.000000
vn 0.031476 0.999505 0.000000
vn 0.038084 0.999275 0.000000
vn 0.276401 0.000000 0.961042
vn 0.377159 0.926149 0.000000
vn 0.036246 0.000000 -0.999343
vn 0.387588 -0.921833 0.000000
vn 0.000000 0.000000 1.000000
vn 0.000000 0.000000 1.000000
vn 0.000000 0.000000 1.000000
vn 0.000000 0.000000 1.000000
vn 0.000000 1.000000 0.000000
vn 0.000000 1.000000 0.000000
vn 0.000000 1.000000 0.000000
vn 0.000000 1.000000 0.000000
vn 0.000000 0.000000 -1.000000
vn 0.000000 0.000000 -1.000000
vn 0.000000 0.000000 -1.000000
vn 0.000000 0.000000 -1.000000
vn 0.000000 -1.000000 0.000000
vn 0.000000 -1.000000 0.000000
vn 0.000000 -1.000000 0.000000
vn 0.000000 -1.000000 0.000000
vn 1.000000 0.000000 0.000000
vn 1.000000 0.000000 0.000000
vn 1.000000 0.000000 0.000000
vn 1.000000 0.000000 0.000000
vn -1.000000 0.000000 0.000000
vn -1.000000 0.000000 0.000000
vn -1.000000 0.000000 0.000000
vn -1.000000 0.000000 0.000000
s 1
g pCube5
usemtl phong1SG
f 1/1/1 2/2/2 6/10/3 7/11/4
s 2
f 8/13/5 9/14/6 5/5/7 4/4/8
s off
f 4/4/9 5/5/10 2/7/11 1/6/12
s 3
f 2/2/13 5/8/14 9/15/15 6/10/16
s 4
f 4/9/17 1/1/18 7/11/19 8/12/20
s 1
f 7/11/4 6/10/3 3/3/21
s 4
f 8/12/20 7/11/19 3/3/22
s 2
f 3/3/23 9/14/6 8/13/5
s 3
f 6/10/16 9/15/15 3/3/24
s off
f 10/16/25 11/17/26 23/18/27 22/19/28
f 11/17/29 12/20/30 24/21/31 23/18/32
f 12/20/33 13/22/34 25/23/35 24/21/36
f 13/22/37 14/24/38 26/25/39 25/23/40
f 14/24/41 15/26/42 27/27/43 26/25/44
f 15/26/45 16/28/46 28/29/47 27/27/48
f 16/28/49 17/30/50 29/31/51 28/29/52
f 17/30/53 18/32/54 30/33/55 29/31/56
f 18/32/57 19/34/58 31/35/59 30/33/60
f 19/34/61 20/36/62 32/37/63 31/35/64
f 20/36/65 21/38/66 33/39/67 32/37/68
f 21/38/69 10/40/70 22/41/71 33/39/72
s 5
f 11/42/73 10/43/74 34/44/75
f 12/45/76 11/42/73 34/44/75
f 13/46/77 12/45/76 34/44/75
f 14/47/78 13/46/77 34/44/75
f 15/48/79 14/47/78 34/44/75
f 16/49/80 15/48/79 34/44/75
f 17/50/81 16/49/80 34/44/75
f 18/51/82 17/50/81 34/44/75
f 19/52/83 18/51/82 34/44/75
f 20/53/84 19/52/83 34/44/75
f 21/54/85 20/53/84 34/44/75
f 10/43/74 21/54/85 34/44/75
s 6
f 47/55/86 48/56/87 49/57/88
f 48/56/87 50/58/89 49/57/88
f 50/58/89 51/59/90 49/57/88
f 51/59/90 52/60/91 49/57/88
f 52/60/91 53/61/92 49/57/88
f 53/61/92 54/62/93 49/57/88
f 54/62/93 55/63/94 49/57/88
f 55/63/94 56/64/95 49/57/88
f 56/64/95 57/65/96 49/57/88
f 57/65/96 58/66/97 49/57/88
f 58/66/97 59/67/98 49/57/88
f 59/67/98 47/55/86 49/57/88
s 7
f 22/68/99 23/69/100 36/70/101 35/71/102
f 23/69/100 24/72/103 37/73/104 36/70/101
f 24/72/103 25/74/105 38/75/106 37/73/104
f 25/74/105 26/76/107 39/77/108 38/75/106
f 26/76/107 27/78/109 40/79/110 39/77/108
f 27/78/109 28/80/111 41/81/112 40/79/110
f 28/80/111 29/82/113 42/83/114 41/81/112
f 29/82/113 30/84/115 43/85/116 42/83/114
f 30/84/115 31/86/117 44/87/118 43/85/116
f 31/86/117 32/88/119 45/89/120 44/87/118
f 32/88/119 33/90/121 46/91/122 45/89/120
f 33/90/121 22/68/99 35/71/102 46/91/122
s off
f 35/71/123 36/70/124 48/56/125 47/55/126
f 36/70/127 37/73/128 50/58/129 48/56/130
f 37/73/131 38/75/132 51/59/133 50/58/134
f 38/75/135 39/77/136 52/60/137 51/59/138
f 39/77/139 40/79/140 53/61/141 52/60/142
f 40/79/143 41/81/144 54/62/145 53/61/146
f 41/81/147 42/83/148 55/63/149 54/62/150
f 42/83/151 43/85/152 56/64/153 55/63/154
f 43/85/155 44/87/156 57/65/157 56/64/158
f 44/87/159 45/89/160 58/66/161 57/65/162
f 45/89/163 46/91/164 59/67/165 58/66/166
f 46/91/167 35/71/168 47/55/169 59/67/170
s 8
f 60/92/171 61/93/172 65/94/173 66/95/174
s 9
f 67/96/175 68/97/176 64/98/177 63/99/178
s off
f 63/99/179 64/98/180 61/100/181 60/101/182
s 10
f 61/93/183 64/102/184 68/103/185 65/94/186
s 11
f 63/104/187 60/92/188 66/95/189 67/105/190
s 8
f 66/95/174 65/94/173 62/106/191
s 11
f 67/105/190 66/95/189 62/106/192
s 9
f 62/106/193 68/97/176 67/96/175
s 10
f 65/94/186 68/103/185 62/106/194
s off
f 69/107/195 70/108/196 72/109/197 71/110/198
f 71/110/199 72/109/200 74/111/201 73/112/202
f 73/112/203 74/111/204 76/113/205 75/114/206
f 75/114/207 76/113/208 70/115/209 69/116/210
f 70/108/211 76/117/212 74/118/213 72/109/214
f 75/119/215 69/107/216 71/110/217 73/120/218
