# This file uses centimeters as units for non-parametric coordinates.

mtllib Lamp_Hanging.mtl
g default
v 1.299038 -0.125000 -0.750000
v 0.750000 -0.125000 -1.299038
v 0.000000 -0.125000 -1.500000
v -0.750000 -0.125000 -1.299038
v -1.299038 -0.125000 -0.750000
v -1.500000 -0.125000 0.000000
v -1.299038 -0.125000 0.750000
v -0.750000 -0.125000 1.299038
v 0.000000 -0.125000 1.500000
v 0.750000 -0.125000 1.299038
v 1.299038 -0.125000 0.750000
v 1.500000 -0.125000 0.000000
v 0.131426 -0.500000 -0.075880
v 0.075880 -0.500000 -0.131426
v 0.000000 -0.500000 -0.151760
v -0.075880 -0.500000 -0.131426
v -0.131426 -0.500000 -0.075880
v -0.151760 -0.500000 0.000000
v -0.131426 -0.500000 0.075880
v -0.075880 -0.500000 0.131426
v 0.000000 -0.500000 0.151760
v 0.075880 -0.500000 0.131426
v 0.131426 -0.500000 0.075880
v 0.151760 -0.500000 0.000000
v 0.131426 -5.125000 -0.075880
v 0.075880 -5.125000 -0.131426
v 0.000000 -5.125000 -0.151760
v -0.075880 -5.125000 -0.131426
v -0.131426 -5.125000 -0.075880
v -0.151760 -5.125000 0.000000
v -0.131426 -5.125000 0.075880
v -0.075880 -5.125000 0.131426
v 0.000000 -5.125000 0.151760
v 0.075880 -5.125000 0.131426
v 0.131426 -5.125000 0.075880
v 0.151760 -5.125000 0.000000
v 1.005562 -5.116101 -0.580569
v 0.580569 -5.116101 -1.005562
v 0.000000 -5.116101 -1.161138
v -0.580569 -5.116101 -1.005562
v -1.005562 -5.116101 -0.580569
v -1.161138 -5.116101 0.000000
v -1.005562 -5.116101 0.580569
v -0.580569 -5.116101 1.005562
v 0.000000 -5.116101 1.161138
v 0.580569 -5.116101 1.005562
v 1.005562 -5.116101 0.580569
v 1.161138 -5.116101 0.000000
v 2.011621 -7.883899 -1.161426
v 1.161426 -7.883899 -2.011621
v 0.000000 -7.883898 0.000000
v 0.000000 -7.883899 -2.322851
v -1.161426 -7.883899 -2.011621
v -2.011621 -7.883899 -1.161426
v -2.322851 -7.883899 0.000000
v -2.011621 -7.883899 1.161426
v -1.161426 -7.883899 2.011621
v 0.000000 -7.883899 2.322851
v 1.161426 -7.883899 2.011621
v 2.011621 -7.883899 1.161426
v 2.322851 -7.883899 0.000000
v 1.299038 -0.350015 -0.750000
v 1.164565 -0.500000 -0.672362
v 0.750000 -0.350015 -1.299038
v 0.672362 -0.500000 -1.164565
v 0.000000 -0.350015 -1.500000
v 0.000000 -0.500000 -1.344724
v -0.750000 -0.350015 -1.299038
v -0.672362 -0.500000 -1.164565
v -1.299038 -0.350015 -0.750000
v -1.164565 -0.500000 -0.672362
v -1.500000 -0.350015 0.000000
v -1.344724 -0.500000 0.000000
v -1.299038 -0.350015 0.750000
v -1.164565 -0.500000 0.672362
v -0.750000 -0.350015 1.299038
v -0.672362 -0.500000 1.164565
v 0.000000 -0.350015 1.500000
v 0.000000 -0.500000 1.344724
v 0.750000 -0.350015 1.299038
v 0.672362 -0.500000 1.164565
v 1.299038 -0.350015 0.750000
v 1.164565 -0.500000 0.672362
v 1.500000 -0.350015 0.000000
v 1.344724 -0.500000 0.000000
vt 0.578125 0.020934
vt 0.635316 0.078125
vt 0.500000 0.150000
vt 0.500000 0.000000
vt 0.421875 0.020934
vt 0.364684 0.078125
vt 0.343750 0.156250
vt 0.364684 0.234375
vt 0.421875 0.291566
vt 0.500000 0.312500
vt 0.578125 0.291566
vt 0.635316 0.234375
vt 0.656250 0.156250
vt 0.578125 0.020934
vt 0.635316 0.078125
vt 0.635316 0.078125
vt 0.578125 0.020934
vt 0.500000 0.000000
vt 0.500000 0.000000
vt 0.421875 0.020934
vt 0.421875 0.020934
vt 0.364684 0.078125
vt 0.364684 0.078125
vt 0.343750 0.156250
vt 0.343750 0.156250
vt 0.364684 0.234375
vt 0.364684 0.234375
vt 0.421875 0.291566
vt 0.421875 0.291566
vt 0.500000 0.312500
vt 0.500000 0.312500
vt 0.578125 0.291566
vt 0.578125 0.291566
vt 0.635316 0.234375
vt 0.635316 0.234375
vt 0.656250 0.156250
vt 0.656250 0.156250
vt 0.635316 0.078125
vt 0.578125 0.020934
vt 0.500000 0.000000
vt 0.421875 0.020934
vt 0.364684 0.078125
vt 0.343750 0.156250
vt 0.364684 0.234375
vt 0.421875 0.291566
vt 0.500000 0.312500
vt 0.578125 0.291566
vt 0.635316 0.234375
vt 0.656250 0.156250
vt 0.375000 0.462861
vt 0.376078 0.312500
vt 0.394755 0.312500
vt 0.395833 0.462861
vt 0.623922 0.312500
vt 0.625000 0.462861
vt 0.604167 0.462861
vt 0.605245 0.312500
vt 0.396912 0.312500
vt 0.415588 0.312500
vt 0.416667 0.462861
vt 0.417745 0.312500
vt 0.436422 0.312500
vt 0.437500 0.462861
vt 0.438578 0.312500
vt 0.457255 0.312500
vt 0.458333 0.462861
vt 0.459412 0.312500
vt 0.478088 0.312500
vt 0.479167 0.462861
vt 0.480245 0.312500
vt 0.498922 0.312500
vt 0.500000 0.462861
vt 0.501078 0.312500
vt 0.519755 0.312500
vt 0.520833 0.462861
vt 0.521912 0.312500
vt 0.540588 0.312500
vt 0.541667 0.462861
vt 0.542745 0.312500
vt 0.561422 0.312500
vt 0.562500 0.462861
vt 0.563578 0.312500
vt 0.582255 0.312500
vt 0.583333 0.462861
vt 0.584412 0.312500
vt 0.603088 0.312500
vt 0.395833 0.688440
vt 0.375000 0.688440
vt 0.416667 0.688440
vt 0.437500 0.688440
vt 0.458333 0.688440
vt 0.479167 0.688440
vt 0.500000 0.688440
vt 0.520833 0.688440
vt 0.541667 0.688440
vt 0.562500 0.688440
vt 0.583333 0.688440
vt 0.604167 0.688440
vt 0.625000 0.688440
vt 0.578125 0.020933
vt 0.635316 0.078125
vt 0.500000 0.000000
vt 0.421875 0.020934
vt 0.364683 0.078125
vt 0.343750 0.156250
vt 0.364684 0.234375
vt 0.421875 0.291567
vt 0.500000 0.312500
vt 0.578125 0.291566
vt 0.635317 0.234375
vt 0.656250 0.156250
vn 0.000000 -1.000000 0.000001
vn 0.000000 -1.000000 0.000000
vn 0.000000 -1.000000 0.000000
vn 0.000000 -1.000000 0.000000
vn 0.000000 -1.000000 0.000001
vn 0.000000 -1.000000 0.000000
vn 0.000000 -1.000000 0.000000
vn 0.000000 -1.000000 0.000000
vn 0.000000 -1.000000 0.000000
vn 0.000000 -1.000000 0.000000
vn 0.000000 -1.000000 0.000000
vn 0.000000 -1.000000 0.000000
vn 0.000000 -1.000000 0.000000
vn 0.000000 -1.000000 0.000000
vn 0.000000 -1.000000 0.000000
vn 0.000000 -1.000000 0.000000
vn 0.000000 -1.000000 0.000000
vn 0.000000 -1.000000 0.000000
vn 0.000000 -1.000000 -0.000001
vn 0.000000 -1.000000 0.000000
vn 0.000000 -1.000000 0.000000
vn 0.000000 -1.000000 0.000000
vn 0.000000 -1.000000 -0.000001
vn 0.000000 -1.000000 0.000000
vn 0.000000 -1.000000 0.000000
vn 0.000000 -1.000000 0.000000
vn 0.000000 -1.000000 0.000000
vn 0.000000 -1.000000 0.000000
vn 0.000000 -1.000000 0.000000
vn 0.000000 -1.000000 0.000000
vn 0.000000 -1.000000 0.000000
vn 0.000000 -1.000000 0.000000
vn 0.000000 -1.000000 0.000000
vn 0.000000 -1.000000 0.000000
vn 0.000000 -1.000000 0.000000
vn 0.000000 -1.000000 0.000000
vn 0.500005 0.000000 -0.866022
vn 0.866022 0.000000 -0.500005
vn 0.866022 0.000000 -0.500005
vn 0.500005 0.000000 -0.866022
vn 0.258841 0.000000 -0.965920
vn 0.500005 0.000000 -0.866022
vn 0.500005 0.000000 -0.866022
vn 0.258841 0.000000 -0.965920
vn -0.500005 0.000000 -0.866022
vn -0.258841 0.000000 -0.965920
vn -0.258841 0.000000 -0.965920
vn -0.500005 0.000000 -0.866022
vn -0.866022 0.000000 -0.500005
vn -0.500005 0.000000 -0.866022
vn -0.500005 0.000000 -0.866022
vn -0.866022 0.000000 -0.500005
vn -0.965920 0.000000 -0.258841
vn -0.866022 0.000000 -0.500005
vn -0.866022 0.000000 -0.500005
vn -0.965920 0.000000 -0.258841
vn -0.866022 0.000000 0.500005
vn -0.965920 0.000000 0.258841
vn -0.965920 0.000000 0.258841
vn -0.866022 0.000000 0.500005
vn -0.500005 0.000000 0.866022
vn -0.866022 0.000000 0.500005
vn -0.866022 0.000000 0.500005
vn -0.500005 0.000000 0.866022
vn -0.258841 0.000000 0.965920
vn -0.500005 0.000000 0.866022
vn -0.500005 0.000000 0.866022
vn -0.258841 0.000000 0.965920
vn 0.500005 0.000000 0.866022
vn 0.258841 0.000000 0.965920
vn 0.258841 0.000000 0.965920
vn 0.500005 0.000000 0.866022
vn 0.866022 0.000000 0.500005
vn 0.500005 0.000000 0.866022
vn 0.500005 0.000000 0.866022
vn 0.866022 0.000000 0.500005
vn 0.965920 0.000000 0.258841
vn 0.866022 0.000000 0.500005
vn 0.866022 0.000000 0.500005
vn 0.965920 0.000000 0.258841
vn 0.866022 0.000000 -0.500005
vn 0.965920 0.000000 -0.258841
vn 0.965920 0.000000 -0.258841
vn 0.866022 0.000000 -0.500005
vn -0.012367 0.999847 0.012368
vn -0.012367 0.999847 0.012368
vn -0.012367 0.999847 0.012368
vn -0.012367 0.999847 0.012368
vn -0.004527 0.999847 0.016893
vn -0.004527 0.999847 0.016893
vn -0.004527 0.999847 0.016893
vn -0.004527 0.999847 0.016893
vn 0.004527 0.999847 0.016893
vn 0.004527 0.999847 0.016893
vn 0.004527 0.999847 0.016893
vn 0.004527 0.999847 0.016893
vn 0.012367 0.999847 0.012368
vn 0.012367 0.999847 0.012368
vn 0.012367 0.999847 0.012368
vn 0.012367 0.999847 0.012368
vn 0.016893 0.999847 0.004525
vn 0.016893 0.999847 0.004525
vn 0.016893 0.999847 0.004525
vn 0.016893 0.999847 0.004525
vn 0.016893 0.999847 -0.004525
vn 0.016893 0.999847 -0.004525
vn 0.016893 0.999847 -0.004525
vn 0.016893 0.999847 -0.004525
vn 0.012367 0.999847 -0.012368
vn 0.012367 0.999847 -0.012368
vn 0.012367 0.999847 -0.012368
vn 0.012367 0.999847 -0.012368
vn 0.004527 0.999847 -0.016893
vn 0.004527 0.999847 -0.016893
vn 0.004527 0.999847 -0.016893
vn 0.004527 0.999847 -0.016893
vn -0.004527 0.999847 -0.016893
vn -0.004527 0.999847 -0.016893
vn -0.004527 0.999847 -0.016893
vn -0.004527 0.999847 -0.016893
vn -0.012367 0.999847 -0.012368
vn -0.012367 0.999847 -0.012368
vn -0.012367 0.999847 -0.012368
vn -0.012367 0.999847 -0.012368
vn -0.016893 0.999847 -0.004525
vn -0.016893 0.999847 -0.004525
vn -0.016893 0.999847 -0.004525
vn -0.016893 0.999847 -0.004525
vn -0.016893 0.999847 0.004525
vn -0.016893 0.999847 0.004525
vn -0.016893 0.999847 0.004525
vn -0.016893 0.999847 0.004525
vn 0.655300 0.375716 -0.655300
vn 0.655300 0.375716 -0.655300
vn 0.655300 0.375716 -0.655300
vn 0.655300 0.375716 -0.655300
vn 0.239876 0.375717 -0.895151
vn 0.239876 0.375717 -0.895151
vn 0.239876 0.375717 -0.895151
vn 0.239876 0.375717 -0.895151
vn -0.239876 0.375717 -0.895151
vn -0.239876 0.375717 -0.895151
vn -0.239876 0.375717 -0.895151
vn -0.239876 0.375717 -0.895151
vn -0.655300 0.375716 -0.655300
vn -0.655300 0.375716 -0.655300
vn -0.655300 0.375716 -0.655300
vn -0.655300 0.375716 -0.655300
vn -0.895151 0.375717 -0.239876
vn -0.895151 0.375717 -0.239876
vn -0.895151 0.375717 -0.239876
vn -0.895151 0.375717 -0.239876
vn -0.895151 0.375717 0.239876
vn -0.895151 0.375717 0.239876
vn -0.895152 0.375717 0.239876
vn -0.895151 0.375717 0.239876
vn -0.655300 0.375716 0.655300
vn -0.655300 0.375716 0.655300
vn -0.655300 0.375716 0.655300
vn -0.655300 0.375716 0.655300
vn -0.239876 0.375717 0.895151
vn -0.239876 0.375717 0.895151
vn -0.239876 0.375717 0.895151
vn -0.239876 0.375717 0.895151
vn 0.239876 0.375717 0.895151
vn 0.239876 0.375717 0.895151
vn 0.239876 0.375717 0.895151
vn 0.239876 0.375717 0.895151
vn 0.655300 0.375716 0.655300
vn 0.655300 0.375716 0.655300
vn 0.655300 0.375716 0.655300
vn 0.655300 0.375716 0.655300
vn 0.895151 0.375717 0.239876
vn 0.895151 0.375717 0.239876
vn 0.895151 0.375717 0.239876
vn 0.895151 0.375717 0.239876
vn 0.895151 0.375717 -0.239876
vn 0.895151 0.375717 -0.239876
vn 0.895152 0.375717 -0.239876
vn 0.895151 0.375717 -0.239876
vn 0.601668 -0.719255 -0.347373
vn 0.601668 -0.719255 -0.347373
vn 0.347373 -0.719255 -0.601668
vn 0.347373 -0.719255 -0.601668
vn 0.601668 -0.719255 -0.347373
vn 0.601668 -0.719255 -0.347373
vn 0.694746 -0.719255 0.000000
vn 0.694746 -0.719255 0.000000
vn 0.347373 -0.719255 -0.601668
vn 0.347373 -0.719255 -0.601668
vn 0.000000 -0.719255 -0.694746
vn 0.000000 -0.719255 -0.694746
vn 0.000000 -0.719255 -0.694746
vn 0.000000 -0.719255 -0.694746
vn -0.347373 -0.719255 -0.601668
vn -0.347373 -0.719255 -0.601668
vn -0.347373 -0.719255 -0.601668
vn -0.347373 -0.719255 -0.601668
vn -0.601668 -0.719255 -0.347373
vn -0.601668 -0.719255 -0.347373
vn -0.601668 -0.719255 -0.347373
vn -0.601668 -0.719255 -0.347373
vn -0.694746 -0.719255 0.000000
vn -0.694746 -0.719255 0.000000
vn -0.694746 -0.719255 0.000000
vn -0.694746 -0.719255 0.000000
vn -0.601668 -0.719255 0.347373
vn -0.601668 -0.719255 0.347373
vn -0.601668 -0.719255 0.347373
vn -0.601668 -0.719255 0.347373
vn -0.347373 -0.719255 0.601668
vn -0.347373 -0.719255 0.601668
vn -0.347373 -0.719255 0.601668
vn -0.347373 -0.719255 0.601668
vn 0.000000 -0.719255 0.694746
vn 0.000000 -0.719255 0.694746
vn 0.000000 -0.719255 0.694746
vn 0.000000 -0.719255 0.694746
vn 0.347373 -0.719255 0.601668
vn 0.347373 -0.719255 0.601668
vn 0.347373 -0.719255 0.601668
vn 0.347373 -0.719255 0.601668
vn 0.601668 -0.719255 0.347373
vn 0.601668 -0.719255 0.347373
vn 0.601668 -0.719255 0.347373
vn 0.601668 -0.719255 0.347373
vn 0.694746 -0.719255 0.000000
vn 0.694746 -0.719255 0.000000
vn 0.866025 0.000000 -0.500000
vn 0.500000 0.000000 -0.866025
vn 0.500000 0.000000 -0.866025
vn 0.866025 0.000000 -0.500000
vn 0.500000 0.000000 -0.866025
vn 0.258819 0.000000 -0.965926
vn 0.258819 0.000000 -0.965926
vn 0.500000 0.000000 -0.866025
vn -0.258819 0.000000 -0.965926
vn -0.500000 0.000000 -0.866025
vn -0.500000 0.000000 -0.866025
vn -0.258819 0.000000 -0.965926
vn -0.500000 0.000000 -0.866025
vn -0.866025 0.000000 -0.500000
vn -0.866025 0.000000 -0.500000
vn -0.500000 0.000000 -0.866025
vn -0.866025 0.000000 -0.500000
vn -0.965926 0.000000 -0.258819
vn -0.965926 0.000000 -0.258819
vn -0.866025 0.000000 -0.500000
vn -0.965926 0.000000 0.258819
vn -0.866025 0.000000 0.500000
vn -0.866025 0.000000 0.500000
vn -0.965926 0.000000 0.258819
vn -0.866025 0.000000 0.500000
vn -0.500000 0.000000 0.866025
vn -0.500000 0.000000 0.866025
vn -0.866025 0.000000 0.500000
vn -0.500000 0.000000 0.866025
vn -0.258819 0.000000 0.965926
vn -0.258819 0.000000 0.965926
vn -0.500000 0.000000 0.866025
vn 0.258819 0.000000 0.965926
vn 0.500000 0.000000 0.866025
vn 0.500000 0.000000 0.866025
vn 0.258819 0.000000 0.965926
vn 0.500000 0.000000 0.866025
vn 0.866025 0.000000 0.500000
vn 0.866025 0.000000 0.500000
vn 0.500000 0.000000 0.866025
vn 0.866025 0.000000 0.500000
vn 0.965926 0.000000 0.258819
vn 0.965926 0.000000 0.258819
vn 0.866025 0.000000 0.500000
vn 0.965926 0.000000 -0.258819
vn 0.866025 0.000000 -0.500000
vn 0.866025 0.000000 -0.500000
vn 0.965926 0.000000 -0.258819
vn 0.000000 -1.000000 0.000000
vn 0.000000 -1.000000 0.000000
vn 0.000000 -1.000000 0.000000
vn 0.000000 -1.000000 0.000000
vn 0.000000 -1.000000 0.000000
vn 0.000000 -1.000000 0.000000
vn 0.000000 -1.000000 0.000000
vn 0.000000 -1.000000 0.000000
vn 0.000000 -1.000000 0.000000
vn 0.000000 -1.000000 0.000000
vn 0.000000 -1.000000 0.000000
vn 0.000000 -1.000000 0.000000
vn 0.000000 -1.000000 0.000000
vn 0.000000 -1.000000 0.000000
vn 0.000000 -1.000000 0.000000
vn 0.000000 -1.000000 0.000000
vn 0.000000 -1.000000 0.000000
vn 0.000000 -1.000000 0.000000
vn 0.000000 -1.000000 0.000000
vn 0.000000 -1.000000 0.000000
vn 0.000000 -1.000000 0.000000
vn 0.000000 -1.000000 0.000000
vn 0.000000 -1.000000 0.000000
vn 0.000000 -1.000000 0.000000
vn 0.000000 -1.000000 0.000000
vn 0.000000 -1.000000 0.000000
vn 0.000000 -1.000000 0.000000
vn 0.000000 -1.000000 0.000000
vn 0.000000 -1.000000 0.000000
vn 0.000000 -1.000000 0.000000
vn 0.000000 -1.000000 0.000000
vn 0.000000 -1.000000 0.000000
vn 0.000000 -1.000000 0.000000
vn 0.000000 -1.000000 0.000000
vn 0.000000 -1.000000 0.000000
vn 0.000000 -1.000000 0.000000
vn 0.000000 -1.000000 0.000000
vn 0.000000 -1.000000 0.000000
vn 0.000000 -1.000000 0.000000
vn 0.000000 -1.000000 0.000000
vn 0.000000 -1.000000 0.000000
vn 0.000000 -1.000000 0.000000
vn 0.000000 -1.000000 0.000000
vn 0.000000 -1.000000 0.000000
vn 0.000000 -1.000000 0.000000
vn 0.000000 -1.000000 0.000000
vn 0.000000 -1.000000 0.000000
vn 0.000000 -1.000000 0.000000
s off
g Lamp_Hanging:Lamp_Hanging
usemtl initialShadingGroup
f 50/1/1 49/2/2 51/3/3
f 52/4/4 50/1/5 51/3/6
f 53/5/7 52/4/8 51/3/9
f 54/6/10 53/5/11 51/3/12
f 55/7/13 54/6/14 51/3/15
f 56/8/16 55/7/17 51/3/18
f 57/9/19 56/8/20 51/3/21
f 58/10/22 57/9/23 51/3/24
f 59/11/25 58/10/26 51/3/27
f 60/12/28 59/11/29 51/3/30
f 61/13/31 60/12/32 51/3/33
f 49/2/34 61/13/35 51/3/36
f 14/14/37 13/15/38 25/16/39 26/17/40
f 15/18/41 14/14/42 26/17/43 27/19/44
f 16/20/45 15/18/46 27/19/47 28/21/48
f 17/22/49 16/20/50 28/21/51 29/23/52
f 18/24/53 17/22/54 29/23/55 30/25/56
f 19/26/57 18/24/58 30/25/59 31/27/60
f 20/28/61 19/26/62 31/27/63 32/29/64
f 21/30/65 20/28/66 32/29/67 33/31/68
f 22/32/69 21/30/70 33/31/71 34/33/72
f 23/34/73 22/32/74 34/33/75 35/35/76
f 24/36/77 23/34/78 35/35/79 36/37/80
f 13/15/81 24/36/82 36/37/83 25/16/84
f 26/17/85 25/16/86 37/38/87 38/39/88
f 27/19/89 26/17/90 38/39/91 39/40/92
f 28/21/93 27/19/94 39/40/95 40/41/96
f 29/23/97 28/21/98 40/41/99 41/42/100
f 30/25/101 29/23/102 41/42/103 42/43/104
f 31/27/105 30/25/106 42/43/107 43/44/108
f 32/29/109 31/27/110 43/44/111 44/45/112
f 33/31/113 32/29/114 44/45/115 45/46/116
f 34/33/117 33/31/118 45/46/119 46/47/120
f 35/35/121 34/33/122 46/47/123 47/48/124
f 36/37/125 35/35/126 47/48/127 48/49/128
f 25/16/129 36/37/130 48/49/131 37/38/132
f 38/39/133 37/38/134 49/2/135 50/1/136
f 39/40/137 38/39/138 50/1/139 52/4/140
f 40/41/141 39/40/142 52/4/143 53/5/144
f 41/42/145 40/41/146 53/5/147 54/6/148
f 42/43/149 41/42/150 54/6/151 55/7/152
f 43/44/153 42/43/154 55/7/155 56/8/156
f 44/45/157 43/44/158 56/8/159 57/9/160
f 45/46/161 44/45/162 57/9/163 58/10/164
f 46/47/165 45/46/166 58/10/167 59/11/168
f 47/48/169 46/47/170 59/11/171 60/12/172
f 48/49/173 47/48/174 60/12/175 61/13/176
f 37/38/177 48/49/178 61/13/179 49/2/180
f 62/50/181 63/51/182 65/52/183 64/53/184
f 63/54/185 62/55/186 84/56/187 85/57/188
f 64/53/189 65/58/190 67/59/191 66/60/192
f 66/60/193 67/61/194 69/62/195 68/63/196
f 68/63/197 69/64/198 71/65/199 70/66/200
f 70/66/201 71/67/202 73/68/203 72/69/204
f 72/69/205 73/70/206 75/71/207 74/72/208
f 74/72/209 75/73/210 77/74/211 76/75/212
f 76/75/213 77/76/214 79/77/215 78/78/216
f 78/78/217 79/79/218 81/80/219 80/81/220
f 80/81/221 81/82/222 83/83/223 82/84/224
f 82/84/225 83/85/226 85/86/227 84/56/228
f 62/50/229 64/53/230 2/87/231 1/88/232
f 64/53/233 66/60/234 3/89/235 2/87/236
f 66/60/237 68/63/238 4/90/239 3/89/240
f 68/63/241 70/66/242 5/91/243 4/90/244
f 70/66/245 72/69/246 6/92/247 5/91/248
f 72/69/249 74/72/250 7/93/251 6/92/252
f 74/72/253 76/75/254 8/94/255 7/93/256
f 76/75/257 78/78/258 9/95/259 8/94/260
f 78/78/261 80/81/262 10/96/263 9/95/264
f 80/81/265 82/84/266 11/97/267 10/96/268
f 82/84/269 84/56/270 12/98/271 11/97/272
f 84/56/273 62/55/274 1/99/275 12/98/276
f 65/100/277 63/101/278 13/15/279 14/14/280
f 67/102/281 65/100/282 14/14/283 15/18/284
f 69/103/285 67/102/286 15/18/287 16/20/288
f 71/104/289 69/103/290 16/20/291 17/22/292
f 73/105/293 71/104/294 17/22/295 18/24/296
f 75/106/297 73/105/298 18/24/299 19/26/300
f 77/107/301 75/106/302 19/26/303 20/28/304
f 79/108/305 77/107/306 20/28/307 21/30/308
f 81/109/309 79/108/310 21/30/311 22/32/312
f 83/110/313 81/109/314 22/32/315 23/34/316
f 85/111/317 83/110/318 23/34/319 24/36/320
f 63/101/321 85/111/322 24/36/323 13/15/324
