# This file uses centimeters as units for non-parametric coordinates.

mtllib lichtknop.mtl
g default
v -0.269046 0.225984 0.024675
v -0.000376 0.225984 0.024675
v -0.269046 0.756820 0.118276
v -0.000376 0.756820 0.118276
v -0.269046 0.774134 0.020082
v -0.000376 0.774134 0.020082
v -0.269046 0.243298 -0.073519
v -0.000376 0.243298 -0.073519
v 0.000238 0.243298 0.118276
v 0.268908 0.243298 0.118276
v 0.000238 0.774134 0.024675
v 0.268908 0.774134 0.024675
v 0.000238 0.756820 -0.073519
v 0.268908 0.756820 -0.073519
v 0.000238 0.225984 0.020082
v 0.268908 0.225984 0.020082
v -0.500000 1.000380 -0.118275
v 0.500000 1.000380 -0.118275
v -0.500000 0.000380 -0.118275
v 0.500000 0.000380 -0.118275
v -0.272908 0.227472 0.021289
v -0.500000 0.000380 0.023138
v 0.272908 0.227472 0.021289
v 0.500000 0.000380 0.023138
v -0.272908 0.773287 0.021289
v -0.500000 1.000380 0.023138
v 0.272908 0.773287 0.021289
v 0.500000 1.000380 0.023138
v 0.272908 0.227472 -0.116791
v -0.272908 0.227472 -0.116791
v 0.272908 0.773287 -0.116791
v -0.272908 0.773287 -0.116791
vt 0.375000 0.000000
vt 0.625000 0.000000
vt 0.375000 0.250000
vt 0.625000 0.250000
vt 0.375000 0.500000
vt 0.625000 0.500000
vt 0.375000 0.750000
vt 0.625000 0.750000
vt 0.375000 1.000000
vt 0.625000 1.000000
vt 0.875000 0.000000
vt 0.875000 0.250000
vt 0.125000 0.000000
vt 0.125000 0.250000
vt 0.375000 0.000000
vt 0.625000 0.000000
vt 0.625000 0.250000
vt 0.375000 0.250000
vt 0.625000 0.500000
vt 0.375000 0.500000
vt 0.625000 0.750000
vt 0.375000 0.750000
vt 0.625000 1.000000
vt 0.375000 1.000000
vt 0.875000 0.000000
vt 0.875000 0.250000
vt 0.125000 0.000000
vt 0.125000 0.250000
vt 0.375000 0.500000
vt 0.625000 0.500000
vt 0.625000 0.750000
vt 0.375000 0.750000
vt 0.396811 0.021811
vt 0.250013 -0.000000
vt 0.749988 0.000000
vt 0.603189 0.021811
vt 0.396811 0.228189
vt 0.375000 0.374987
vt 0.749987 0.250000
vt 0.603189 0.228189
vt 0.396811 0.021811
vt 0.603189 0.021811
vt 0.603189 0.228189
vt 0.396811 0.228189
vt 0.625000 0.374987
vt 0.625000 0.875013
vt 0.375000 0.875013
vt 0.875000 0.000000
vt 0.875000 0.250000
vt 0.125000 0.000000
vt 0.250013 0.250000
vt 0.125000 0.250000
vn 0.000000 -0.173648 0.984808
vn 0.000000 -0.173648 0.984808
vn 0.000000 -0.173648 0.984808
vn 0.000000 -0.173648 0.984808
vn 0.000000 0.984808 0.173647
vn 0.000000 0.984808 0.173647
vn 0.000000 0.984808 0.173647
vn 0.000000 0.984808 0.173647
vn 0.000000 0.173648 -0.984808
vn 0.000000 0.173648 -0.984808
vn 0.000000 0.173648 -0.984808
vn 0.000000 0.173648 -0.984808
vn 0.000000 -0.984808 -0.173648
vn 0.000000 -0.984808 -0.173648
vn 0.000000 -0.984808 -0.173648
vn 0.000000 -0.984808 -0.173648
vn 1.000000 0.000000 0.000000
vn 1.000000 0.000000 0.000000
vn 1.000000 0.000000 0.000000
vn 1.000000 0.000000 0.000000
vn -1.000000 0.000000 0.000000
vn -1.000000 0.000000 0.000000
vn -1.000000 0.000000 0.000000
vn -1.000000 0.000000 0.000000
vn 0.000000 0.173648 0.984808
vn 0.000000 0.173648 0.984808
vn 0.000000 0.173648 0.984808
vn 0.000000 0.173648 0.984808
vn 0.000000 0.984808 -0.173647
vn 0.000000 0.984808 -0.173647
vn 0.000000 0.984808 -0.173647
vn 0.000000 0.984808 -0.173647
vn 0.000000 -0.173648 -0.984808
vn 0.000000 -0.173648 -0.984808
vn 0.000000 -0.173648 -0.984808
vn 0.000000 -0.173648 -0.984808
vn 0.000000 -0.984808 0.173648
vn 0.000000 -0.984808 0.173648
vn 0.000000 -0.984808 0.173648
vn 0.000000 -0.984808 0.173648
vn 1.000000 0.000000 0.000000
vn 1.000000 0.000000 0.000000
vn 1.000000 0.000000 0.000000
vn 1.000000 0.000000 0.000000
vn -1.000000 0.000000 0.000000
vn -1.000000 0.000000 0.000000
vn -1.000000 0.000000 0.000000
vn -1.000000 0.000000 0.000000
vn 0.000000 0.000000 -1.000000
vn 0.000000 0.000000 -1.000000
vn 0.000000 0.000000 -1.000000
vn 0.000000 0.000000 -1.000000
vn 0.000000 0.008140 0.999967
vn 0.000000 0.008140 0.999967
vn 0.000000 0.008140 0.999967
vn 0.000000 0.008140 0.999967
vn 0.008140 0.000000 0.999967
vn 0.008140 0.000000 0.999967
vn 0.008140 0.000000 0.999967
vn 0.008140 0.000000 0.999967
vn -0.008140 0.000000 0.999967
vn -0.008140 0.000000 0.999967
vn -0.008140 0.000000 0.999967
vn -0.008140 0.000000 0.999967
vn 0.000000 -0.008140 0.999967
vn 0.000000 -0.008140 0.999967
vn 0.000000 -0.008140 0.999967
vn 0.000000 -0.008140 0.999967
vn 0.000000 0.000000 1.000000
vn 0.000000 0.000000 1.000000
vn 0.000000 0.000000 1.000000
vn 0.000000 0.000000 1.000000
vn 0.000000 1.000000 0.000000
vn 0.000000 1.000000 0.000000
vn 0.000000 1.000000 0.000000
vn 0.000000 1.000000 0.000000
vn 0.000000 -1.000000 0.000000
vn 0.000000 -1.000000 0.000000
vn 0.000000 -1.000000 0.000000
vn 0.000000 -1.000000 0.000000
vn 1.000000 0.000000 0.000000
vn 1.000000 0.000000 0.000000
vn 1.000000 0.000000 0.000000
vn 1.000000 0.000000 0.000000
vn -1.000000 0.000000 0.000000
vn -1.000000 0.000000 0.000000
vn -1.000000 0.000000 0.000000
vn -1.000000 0.000000 0.000000
vn 0.000000 1.000000 0.000000
vn 0.000000 1.000000 0.000000
vn 0.000000 1.000000 0.000000
vn 0.000000 1.000000 0.000000
vn -1.000000 0.000000 0.000000
vn -1.000000 0.000000 0.000000
vn -1.000000 0.000000 0.000000
vn -1.000000 0.000000 0.000000
vn 0.000000 -1.000000 0.000000
vn 0.000000 -1.000000 0.000000
vn 0.000000 -1.000000 0.000000
vn 0.000000 -1.000000 0.000000
vn 1.000000 0.000000 0.000000
vn 1.000000 0.000000 0.000000
vn 1.000000 0.000000 0.000000
vn 1.000000 0.000000 0.000000
s off
g lichtknop
usemtl initialShadingGroup
f 1/1/1 2/2/2 4/4/3 3/3/4
f 3/3/5 4/4/6 6/6/7 5/5/8
f 5/5/9 6/6/10 8/8/11 7/7/12
f 7/7/13 8/8/14 2/10/15 1/9/16
f 2/2/17 8/11/18 6/12/19 4/4/20
f 7/13/21 1/1/22 3/3/23 5/14/24
f 9/15/25 10/16/26 12/17/27 11/18/28
f 11/18/29 12/17/30 14/19/31 13/20/32
f 13/20/33 14/19/34 16/21/35 15/22/36
f 15/22/37 16/21/38 10/23/39 9/24/40
f 10/16/41 16/25/42 14/26/43 12/17/44
f 15/27/45 9/15/46 11/18/47 13/28/48
f 17/29/49 18/30/50 20/31/51 19/32/52
f 21/33/53 22/34/54 24/35/55 23/36/56
f 22/34/57 21/33/58 25/37/59 26/38/60
f 23/36/61 24/35/62 28/39/63 27/40/64
f 26/38/65 25/37/66 27/40/67 28/39/68
f 30/41/69 29/42/70 31/43/71 32/44/72
f 26/38/73 28/45/74 18/30/75 17/29/76
f 19/32/77 20/31/78 24/46/79 22/47/80
f 24/35/81 20/48/82 18/49/83 28/39/84
f 19/50/85 22/34/86 26/51/87 17/52/88
f 21/33/89 23/36/90 29/42/91 30/41/92
f 23/36/93 27/40/94 31/43/95 29/42/96
f 27/40/97 25/37/98 32/44/99 31/43/100
f 25/37/101 21/33/102 30/41/103 32/44/104
