# This file uses centimeters as units for non-parametric coordinates.

mtllib Mirror.mtl
g default
v -4.000000 0.000000 0.250000
v 4.000000 0.000000 0.250000
v -4.000000 3.000000 0.250000
v 4.000000 3.000000 0.250000
v -4.000000 3.000000 0.000000
v 4.000000 3.000000 0.000000
v -4.000000 0.000000 0.000000
v 4.000000 0.000000 0.000000
v -3.631587 0.138155 0.250000
v 3.631587 0.138155 0.250000
v 3.631587 2.861845 0.250000
v -3.631587 2.861845 0.250000
v -3.323632 0.253638 0.022493
v 3.323632 0.253638 0.022493
v 3.323632 2.746363 0.022493
v -3.323632 2.746363 0.022493
vt 0.375000 0.000000
vt 0.625000 0.000000
vt 0.375000 0.250000
vt 0.625000 0.250000
vt 0.375000 0.500000
vt 0.625000 0.500000
vt 0.375000 0.750000
vt 0.625000 0.750000
vt 0.375000 1.000000
vt 0.625000 1.000000
vt 0.875000 0.000000
vt 0.875000 0.250000
vt 0.125000 0.000000
vt 0.125000 0.250000
vt 0.375000 0.000000
vt 0.625000 0.000000
vt 0.625000 0.250000
vt 0.375000 0.250000
vt 0.375000 0.000000
vt 0.625000 0.000000
vt 0.625000 0.250000
vt 0.375000 0.250000
vn 0.000000 0.000000 1.000000
vn 0.000000 0.000000 1.000000
vn 0.000000 0.000000 1.000000
vn 0.000000 0.000000 1.000000
vn 0.000000 1.000000 0.000000
vn 0.000000 1.000000 0.000000
vn 0.000000 1.000000 0.000000
vn 0.000000 1.000000 0.000000
vn 0.000000 -1.000000 0.000000
vn 0.000000 -1.000000 0.000000
vn 0.000000 -1.000000 0.000000
vn 0.000000 -1.000000 0.000000
vn 1.000000 0.000000 0.000000
vn 1.000000 0.000000 0.000000
vn 1.000000 0.000000 0.000000
vn 1.000000 0.000000 0.000000
vn -1.000000 0.000000 0.000000
vn -1.000000 0.000000 0.000000
vn -1.000000 0.000000 0.000000
vn -1.000000 0.000000 0.000000
vn 0.000000 0.000000 1.000000
vn 0.000000 0.000000 1.000000
vn 0.000000 0.000000 1.000000
vn 0.000000 0.000000 1.000000
vn 0.000000 0.000000 1.000000
vn 0.000000 0.000000 1.000000
vn 0.000000 0.000000 1.000000
vn 0.000000 0.000000 1.000000
vn 0.000000 0.000000 1.000000
vn 0.000000 0.000000 1.000000
vn 0.000000 0.000000 1.000000
vn 0.000000 0.000000 1.000000
vn 0.000000 0.000000 1.000000
vn 0.000000 0.000000 1.000000
vn 0.000000 0.000000 1.000000
vn 0.000000 0.000000 1.000000
vn 0.000000 0.891700 0.452628
vn 0.000000 0.891700 0.452628
vn 0.000000 0.891700 0.452628
vn 0.000000 0.891700 0.452628
vn -0.594203 0.000000 0.804315
vn -0.594203 0.000000 0.804315
vn -0.594203 0.000000 0.804315
vn -0.594203 0.000000 0.804315
vn 0.000000 -0.891699 0.452628
vn 0.000000 -0.891699 0.452628
vn 0.000000 -0.891700 0.452628
vn 0.000000 -0.891700 0.452628
vn 0.594203 0.000000 0.804315
vn 0.594203 0.000000 0.804315
vn 0.594203 0.000000 0.804315
vn 0.594203 0.000000 0.804315
s off
g Mirror
usemtl initialShadingGroup
f 13/19/1 14/20/2 15/21/3 16/22/4
f 3/3/5 4/4/6 6/6/7 5/5/8
f 7/7/9 8/8/10 2/10/11 1/9/12
f 2/2/13 8/11/14 6/12/15 4/4/16
f 7/13/17 1/1/18 3/3/19 5/14/20
f 1/1/21 2/2/22 10/16/23 9/15/24
f 2/2/25 4/4/26 11/17/27 10/16/28
f 4/4/29 3/3/30 12/18/31 11/17/32
f 3/3/33 1/1/34 9/15/35 12/18/36
f 9/15/37 10/16/38 14/20/39 13/19/40
f 10/16/41 11/17/42 15/21/43 14/20/44
f 11/17/45 12/18/46 16/22/47 15/21/48
f 12/18/49 9/15/50 13/19/51 16/22/52
