# This file uses centimeters as units for non-parametric coordinates.

mtllib raam.mtl
g default
v -0.259615 1.201855 0.249328
v -3.543436 1.201855 0.249328
v -3.543435 3.942415 0.249328
v -0.259615 3.942414 0.249328
v -0.259615 1.201855 -0.105615
v -3.543436 1.201855 -0.105615
v -3.543435 3.942415 -0.105615
v -0.259615 3.942415 -0.105615
v 0.002632 0.525663 -0.105615
v -4.115076 0.525663 -0.105615
v -4.115076 4.178038 -0.105615
v 0.002632 4.178037 -0.105615
v 0.002632 0.525663 0.249328
v -4.115076 0.525663 0.249328
v -4.115076 4.178037 0.249328
v 0.002632 4.178037 0.249328
v -0.259615 7.186501 -0.101594
v -3.543436 7.186501 -0.101594
v -3.543435 4.445959 -0.110915
v -0.259615 4.445960 -0.110915
v -0.259615 7.184930 0.253345
v -3.543436 7.184930 0.253345
v -3.543435 4.444573 0.244025
v -0.259615 4.444574 0.244025
v 0.002632 7.861300 0.257365
v -4.115076 7.861300 0.257365
v -4.115076 4.174407 0.242271
v 0.002632 4.174407 0.242271
v 0.002632 7.862685 -0.097575
v -4.115076 7.862685 -0.097575
v -4.115076 4.175792 -0.112670
v 0.002632 4.175793 -0.112670
vt 0.000000 1.000000
vt 0.250000 1.000000
vt 0.500000 1.000000
vt 0.750000 1.000000
vt 1.000000 1.000000
vt 0.000000 0.750000
vt 0.250000 0.750000
vt 0.500000 0.750000
vt 0.750000 0.750000
vt 1.000000 0.750000
vt 0.000000 0.500000
vt 0.250000 0.500000
vt 0.500000 0.500000
vt 0.750000 0.500000
vt 1.000000 0.500000
vt 0.000000 0.250000
vt 0.250000 0.250000
vt 0.500000 0.250000
vt 0.750000 0.250000
vt 1.000000 0.250000
vt 0.000000 0.000000
vt 0.250000 0.000000
vt 0.500000 0.000000
vt 0.750000 0.000000
vt 1.000000 0.000000
vt 0.250000 1.000000
vt 0.000000 1.000000
vt 0.000000 0.750000
vt 0.250000 0.750000
vt 0.500000 1.000000
vt 0.500000 0.750000
vt 0.750000 1.000000
vt 0.750000 0.750000
vt 1.000000 1.000000
vt 1.000000 0.750000
vt 0.000000 0.500000
vt 0.250000 0.500000
vt 0.500000 0.500000
vt 0.750000 0.500000
vt 1.000000 0.500000
vt 0.000000 0.250000
vt 0.250000 0.250000
vt 0.500000 0.250000
vt 0.750000 0.250000
vt 1.000000 0.250000
vt 0.000000 0.000000
vt 0.250000 0.000000
vt 0.500000 0.000000
vt 0.750000 0.000000
vt 1.000000 0.000000
vn 0.000000 1.000000 0.000000
vn 0.000000 1.000000 0.000000
vn 0.000000 1.000000 0.000000
vn 0.000000 1.000000 0.000000
vn 1.000000 -0.000000 0.000000
vn 1.000000 -0.000000 0.000000
vn 1.000000 -0.000000 0.000000
vn 1.000000 -0.000000 0.000000
vn -0.000000 -1.000000 -0.000001
vn -0.000000 -1.000000 -0.000001
vn -0.000000 -1.000000 -0.000001
vn -0.000000 -1.000000 -0.000001
vn -1.000000 0.000000 0.000000
vn -1.000000 0.000000 0.000000
vn -1.000000 0.000000 0.000000
vn -1.000000 0.000000 0.000000
vn 0.000000 0.000000 -1.000000
vn -0.000000 0.000000 -1.000000
vn -0.000000 0.000000 -1.000000
vn 0.000000 0.000000 -1.000000
vn 0.000000 0.000000 -1.000000
vn 0.000000 0.000000 -1.000000
vn -0.000000 0.000000 -1.000000
vn -0.000000 0.000000 -1.000000
vn 0.000000 -1.000000 0.000000
vn 0.000000 -1.000000 0.000000
vn 0.000000 -1.000000 0.000000
vn 0.000000 -1.000000 0.000000
vn -1.000000 0.000000 0.000000
vn -1.000000 0.000000 0.000000
vn -1.000000 0.000000 0.000000
vn -1.000000 0.000000 0.000000
vn 0.000000 1.000000 0.000001
vn 0.000000 1.000000 0.000001
vn 0.000000 1.000000 0.000001
vn 0.000000 1.000000 0.000001
vn 1.000000 -0.000000 0.000000
vn 1.000000 -0.000000 0.000000
vn 1.000000 -0.000000 0.000000
vn 1.000000 -0.000000 0.000000
vn 0.000000 0.000000 1.000000
vn 0.000000 0.000000 1.000000
vn 0.000000 0.000000 1.000000
vn 0.000000 0.000000 1.000000
vn 0.000000 0.000000 1.000000
vn 0.000000 0.000000 1.000000
vn 0.000000 0.000000 1.000000
vn 0.000000 0.000000 1.000000
vn 0.000000 -0.999990 -0.004425
vn 0.000000 -0.999990 -0.004425
vn 0.000000 -0.999990 -0.004425
vn 0.000000 -0.999990 -0.004425
vn 1.000000 0.000000 0.000000
vn 1.000000 0.000000 0.000000
vn 1.000000 0.000000 0.000000
vn 1.000000 0.000000 0.000000
vn -0.000000 0.999992 0.003904
vn -0.000000 0.999992 0.003904
vn -0.000000 0.999992 0.003904
vn -0.000000 0.999992 0.003904
vn -1.000000 -0.000000 -0.000000
vn -1.000000 -0.000000 -0.000000
vn -1.000000 -0.000000 -0.000000
vn -1.000000 -0.000000 -0.000000
vn 0.000278 -0.004998 0.999987
vn -0.000447 -0.005247 0.999986
vn -0.000129 -0.005742 0.999984
vn 0.000235 -0.005145 0.999987
vn 0.000365 -0.004936 0.999988
vn 0.000521 -0.004272 0.999991
vn -0.000634 -0.005253 0.999986
vn -0.000617 -0.005287 0.999986
vn 0.000000 0.999992 0.003902
vn 0.000000 0.999992 0.003902
vn 0.000000 0.999992 0.003902
vn 0.000000 0.999992 0.003902
vn -1.000000 0.000000 0.000000
vn -1.000000 0.000000 0.000000
vn -1.000000 0.000000 0.000000
vn -1.000000 0.000000 0.000000
vn 0.000000 -0.999992 -0.003905
vn 0.000000 -0.999992 -0.003905
vn 0.000000 -0.999992 -0.003905
vn 0.000000 -0.999992 -0.003905
vn 1.000000 0.000000 0.000000
vn 1.000000 0.000000 0.000000
vn 1.000000 0.000000 0.000000
vn 1.000000 0.000000 0.000000
vn -0.000235 0.005145 -0.999987
vn 0.000129 0.005742 -0.999984
vn 0.000447 0.005247 -0.999986
vn -0.000278 0.004998 -0.999987
vn -0.000521 0.004272 -0.999991
vn -0.000365 0.004936 -0.999988
vn 0.000617 0.005287 -0.999986
vn 0.000634 0.005253 -0.999986
s off
g raam_1
usemtl initialShadingGroup
f 2/2/1 1/1/2 5/6/3 6/7/4
f 3/3/5 2/2/6 6/7/7 7/8/8
f 4/4/9 3/3/10 7/8/11 8/9/12
f 1/5/13 4/4/14 8/9/15 5/10/16
s 1
f 6/7/17 5/6/18 9/11/19 10/12/20
f 7/8/21 6/7/17 10/12/20 11/13/22
f 8/9/23 7/8/21 11/13/22 12/14/24
f 5/10/18 8/9/23 12/14/24 9/15/19
s off
f 10/12/25 9/11/26 13/16/27 14/17/28
f 11/13/29 10/12/30 14/17/31 15/18/32
f 12/14/33 11/13/34 15/18/35 16/19/36
f 9/15/37 12/14/38 16/19/39 13/20/40
s 2
f 14/17/41 13/16/42 1/21/43 2/22/44
f 15/18/45 14/17/41 2/22/44 3/23/46
f 16/19/47 15/18/45 3/23/46 4/24/48
f 13/20/42 16/19/47 4/24/48 1/25/43
s off
f 18/26/49 17/27/50 21/28/51 22/29/52
f 19/30/53 18/26/54 22/29/55 23/31/56
f 20/32/57 19/30/58 23/31/59 24/33/60
f 17/34/61 20/32/62 24/33/63 21/35/64
s 3
f 22/29/65 21/28/66 25/36/67 26/37/68
f 23/31/69 22/29/65 26/37/68 27/38/70
f 24/33/71 23/31/69 27/38/70 28/39/72
f 21/35/66 24/33/71 28/39/72 25/40/67
s off
f 26/37/73 25/36/74 29/41/75 30/42/76
f 27/38/77 26/37/78 30/42/79 31/43/80
f 28/39/81 27/38/82 31/43/83 32/44/84
f 25/40/85 28/39/86 32/44/87 29/45/88
s 4
f 30/42/89 29/41/90 17/46/91 18/47/92
f 31/43/93 30/42/89 18/47/92 19/48/94
f 32/44/95 31/43/93 19/48/94 20/49/96
f 29/45/90 32/44/95 20/49/96 17/50/91
g default
v 0.276075 1.201855 -0.105312
v 3.559896 1.201855 -0.105312
v 3.559896 3.942415 -0.105312
v 0.276075 3.942414 -0.105312
v 0.276075 1.201855 0.249631
v 3.559896 1.201855 0.249631
v 3.559896 3.942415 0.249631
v 0.276075 3.942415 0.249631
v 0.013829 0.525663 0.249631
v 4.131536 0.525663 0.249631
v 4.131536 4.178038 0.249631
v 0.013829 4.178037 0.249631
v 0.013829 0.525663 -0.105312
v 4.131536 0.525663 -0.105312
v 4.131536 4.178037 -0.105312
v 0.013829 4.178037 -0.105312
v 0.276075 7.186501 0.245610
v 3.559896 7.186501 0.245610
v 3.559896 4.445959 0.254931
v 0.276075 4.445960 0.254931
v 0.276075 7.184930 -0.109329
v 3.559896 7.184930 -0.109329
v 3.559896 4.444573 -0.100009
v 0.276075 4.444574 -0.100009
v 0.013829 7.861300 -0.113349
v 4.131536 7.861300 -0.113349
v 4.131536 4.174407 -0.098254
v 0.013829 4.174407 -0.098254
v 0.013829 7.862685 0.241591
v 4.131536 7.862685 0.241591
v 4.131536 4.175792 0.256686
v 0.013829 4.175793 0.256686
vt 0.000000 1.000000
vt 0.250000 1.000000
vt 0.500000 1.000000
vt 0.750000 1.000000
vt 1.000000 1.000000
vt 0.000000 0.750000
vt 0.250000 0.750000
vt 0.500000 0.750000
vt 0.750000 0.750000
vt 1.000000 0.750000
vt 0.000000 0.500000
vt 0.250000 0.500000
vt 0.500000 0.500000
vt 0.750000 0.500000
vt 1.000000 0.500000
vt 0.000000 0.250000
vt 0.250000 0.250000
vt 0.500000 0.250000
vt 0.750000 0.250000
vt 1.000000 0.250000
vt 0.000000 0.000000
vt 0.250000 0.000000
vt 0.500000 0.000000
vt 0.750000 0.000000
vt 1.000000 0.000000
vt 0.250000 1.000000
vt 0.000000 1.000000
vt 0.000000 0.750000
vt 0.250000 0.750000
vt 0.500000 1.000000
vt 0.500000 0.750000
vt 0.750000 1.000000
vt 0.750000 0.750000
vt 1.000000 1.000000
vt 1.000000 0.750000
vt 0.000000 0.500000
vt 0.250000 0.500000
vt 0.500000 0.500000
vt 0.750000 0.500000
vt 1.000000 0.500000
vt 0.000000 0.250000
vt 0.250000 0.250000
vt 0.500000 0.250000
vt 0.750000 0.250000
vt 1.000000 0.250000
vt 0.000000 0.000000
vt 0.250000 0.000000
vt 0.500000 0.000000
vt 0.750000 0.000000
vt 1.000000 0.000000
vn -0.000000 1.000000 0.000000
vn -0.000000 1.000000 0.000000
vn -0.000000 1.000000 0.000000
vn -0.000000 1.000000 0.000000
vn -1.000000 0.000000 0.000000
vn -1.000000 0.000000 0.000000
vn -1.000000 0.000000 0.000000
vn -1.000000 0.000000 0.000000
vn 0.000000 -1.000000 0.000001
vn 0.000000 -1.000000 0.000001
vn 0.000000 -1.000000 0.000001
vn 0.000000 -1.000000 0.000001
vn 1.000000 0.000000 0.000000
vn 1.000000 0.000000 0.000000
vn 1.000000 0.000000 0.000000
vn 1.000000 0.000000 0.000000
vn 0.000000 -0.000000 1.000000
vn -0.000000 -0.000000 1.000000
vn -0.000000 -0.000000 1.000000
vn 0.000000 -0.000000 1.000000
vn 0.000000 -0.000000 1.000000
vn 0.000000 -0.000000 1.000000
vn -0.000000 -0.000000 1.000000
vn -0.000000 -0.000000 1.000000
vn 0.000000 -1.000000 0.000000
vn 0.000000 -1.000000 0.000000
vn 0.000000 -1.000000 0.000000
vn 0.000000 -1.000000 0.000000
vn 1.000000 0.000000 0.000000
vn 1.000000 0.000000 0.000000
vn 1.000000 0.000000 0.000000
vn 1.000000 0.000000 0.000000
vn -0.000000 1.000000 -0.000001
vn -0.000000 1.000000 -0.000001
vn -0.000000 1.000000 -0.000001
vn -0.000000 1.000000 -0.000001
vn -1.000000 -0.000000 0.000000
vn -1.000000 -0.000000 0.000000
vn -1.000000 -0.000000 0.000000
vn -1.000000 -0.000000 0.000000
vn -0.000000 0.000000 -1.000000
vn 0.000000 0.000000 -1.000000
vn -0.000000 0.000000 -1.000000
vn -0.000000 0.000000 -1.000000
vn -0.000000 0.000000 -1.000000
vn -0.000000 0.000000 -1.000000
vn -0.000000 0.000000 -1.000000
vn -0.000000 0.000000 -1.000000
vn 0.000000 -0.999990 0.004425
vn 0.000000 -0.999990 0.004425
vn 0.000000 -0.999990 0.004425
vn 0.000000 -0.999990 0.004425
vn -1.000000 -0.000000 0.000000
vn -1.000000 -0.000000 0.000000
vn -1.000000 -0.000000 0.000000
vn -1.000000 -0.000000 0.000000
vn 0.000000 0.999992 -0.003904
vn 0.000000 0.999992 -0.003904
vn 0.000000 0.999992 -0.003904
vn 0.000000 0.999992 -0.003904
vn 1.000000 -0.000000 0.000000
vn 1.000000 -0.000000 0.000000
vn 1.000000 -0.000000 0.000000
vn 1.000000 -0.000000 0.000000
vn -0.000278 -0.004998 -0.999987
vn 0.000447 -0.005247 -0.999986
vn 0.000129 -0.005742 -0.999984
vn -0.000235 -0.005145 -0.999987
vn -0.000365 -0.004936 -0.999988
vn -0.000521 -0.004272 -0.999991
vn 0.000634 -0.005253 -0.999986
vn 0.000617 -0.005287 -0.999986
vn 0.000000 0.999992 -0.003902
vn 0.000000 0.999992 -0.003902
vn 0.000000 0.999992 -0.003902
vn 0.000000 0.999992 -0.003902
vn 1.000000 0.000000 0.000000
vn 1.000000 0.000000 0.000000
vn 1.000000 0.000000 0.000000
vn 1.000000 0.000000 0.000000
vn -0.000000 -0.999992 0.003905
vn -0.000000 -0.999992 0.003905
vn -0.000000 -0.999992 0.003905
vn -0.000000 -0.999992 0.003905
vn -1.000000 0.000000 -0.000000
vn -1.000000 0.000000 -0.000000
vn -1.000000 0.000000 -0.000000
vn -1.000000 0.000000 -0.000000
vn 0.000235 0.005145 0.999987
vn -0.000129 0.005742 0.999984
vn -0.000447 0.005247 0.999986
vn 0.000278 0.004998 0.999987
vn 0.000521 0.004272 0.999991
vn 0.000365 0.004936 0.999988
vn -0.000617 0.005287 0.999986
vn -0.000634 0.005253 0.999986
s off
g raam_2
usemtl initialShadingGroup
f 34/52/97 33/51/98 37/56/99 38/57/100
f 35/53/101 34/52/102 38/57/103 39/58/104
f 36/54/105 35/53/106 39/58/107 40/59/108
f 33/55/109 36/54/110 40/59/111 37/60/112
s 1
f 38/57/113 37/56/114 41/61/115 42/62/116
f 39/58/117 38/57/113 42/62/116 43/63/118
f 40/59/119 39/58/117 43/63/118 44/64/120
f 37/60/114 40/59/119 44/64/120 41/65/115
s off
f 42/62/121 41/61/122 45/66/123 46/67/124
f 43/63/125 42/62/126 46/67/127 47/68/128
f 44/64/129 43/63/130 47/68/131 48/69/132
f 41/65/133 44/64/134 48/69/135 45/70/136
s 2
f 46/67/137 45/66/138 33/71/139 34/72/140
f 47/68/141 46/67/137 34/72/140 35/73/142
f 48/69/143 47/68/141 35/73/142 36/74/144
f 45/70/138 48/69/143 36/74/144 33/75/139
s off
f 50/76/145 49/77/146 53/78/147 54/79/148
f 51/80/149 50/76/150 54/79/151 55/81/152
f 52/82/153 51/80/154 55/81/155 56/83/156
f 49/84/157 52/82/158 56/83/159 53/85/160
s 3
f 54/79/161 53/78/162 57/86/163 58/87/164
f 55/81/165 54/79/161 58/87/164 59/88/166
f 56/83/167 55/81/165 59/88/166 60/89/168
f 53/85/162 56/83/167 60/89/168 57/90/163
s off
f 58/87/169 57/86/170 61/91/171 62/92/172
f 59/88/173 58/87/174 62/92/175 63/93/176
f 60/89/177 59/88/178 63/93/179 64/94/180
f 57/90/181 60/89/182 64/94/183 61/95/184
s 4
f 62/92/185 61/91/186 49/96/187 50/97/188
f 63/93/189 62/92/185 50/97/188 51/98/190
f 64/94/191 63/93/189 51/98/190 52/99/192
f 61/95/186 64/94/191 52/99/192 49/100/187
g default
v 4.161923 7.893878 0.186104
v 4.161923 0.494762 0.186104
v -4.162082 0.494763 0.186104
v -4.162082 7.893879 0.186104
v 4.161923 7.893878 -0.146024
v 4.161923 0.494762 -0.146024
v -4.162082 0.494763 -0.146024
v -4.162082 7.893879 -0.146024
v 4.678645 8.353187 -0.146810
v 4.678645 0.035453 -0.146810
v -4.678805 0.035454 -0.146810
v -4.678803 8.353188 -0.146810
v 4.678645 8.353188 0.186889
v 4.678645 0.035453 0.186889
v -4.678805 0.035454 0.186889
v -4.678803 8.353188 0.186889
vt 0.000000 1.000000
vt 0.250000 1.000000
vt 0.500000 1.000000
vt 0.750000 1.000000
vt 1.000000 1.000000
vt 0.000000 0.750000
vt 0.250000 0.750000
vt 0.500000 0.750000
vt 0.750000 0.750000
vt 1.000000 0.750000
vt 0.000000 0.500000
vt 0.250000 0.500000
vt 0.500000 0.500000
vt 0.750000 0.500000
vt 1.000000 0.500000
vt 0.000000 0.250000
vt 0.250000 0.250000
vt 0.500000 0.250000
vt 0.750000 0.250000
vt 1.000000 0.250000
vt 0.000000 0.000000
vt 0.250000 0.000000
vt 0.500000 0.000000
vt 0.750000 0.000000
vt 1.000000 0.000000
vn -1.000000 0.000000 0.000000
vn -1.000000 0.000000 0.000000
vn -1.000000 0.000000 0.000000
vn -1.000000 0.000000 0.000000
vn 0.000000 1.000000 0.000000
vn 0.000000 1.000000 0.000000
vn 0.000000 1.000000 0.000000
vn 0.000000 1.000000 0.000000
vn 1.000000 -0.000000 0.000000
vn 1.000000 -0.000000 0.000000
vn 1.000000 -0.000000 0.000000
vn 1.000000 -0.000000 0.000000
vn -0.000000 -1.000000 0.000000
vn -0.000000 -1.000000 0.000000
vn -0.000000 -1.000000 0.000000
vn -0.000000 -1.000000 0.000000
vn -0.000742 0.000877 -0.999999
vn -0.000742 -0.000877 -0.999999
vn -0.000817 -0.000791 -0.999999
vn -0.000817 0.000791 -0.999999
vn 0.000741 0.000877 -0.999999
vn 0.000817 0.000791 -0.999999
vn 0.000741 -0.000877 -0.999999
vn 0.000817 -0.000791 -0.999999
vn 1.000000 -0.000000 0.000000
vn 1.000000 -0.000000 0.000000
vn 1.000000 -0.000000 0.000000
vn 1.000000 -0.000000 0.000000
vn -0.000000 -1.000000 0.000000
vn -0.000000 -1.000000 0.000000
vn -0.000000 -1.000000 0.000000
vn -0.000000 -1.000000 0.000000
vn -1.000000 0.000000 0.000000
vn -1.000000 0.000000 0.000000
vn -1.000000 0.000000 0.000000
vn -1.000000 0.000000 0.000000
vn 0.000000 1.000000 0.000000
vn 0.000000 1.000000 0.000000
vn 0.000000 1.000000 0.000000
vn 0.000000 1.000000 0.000000
vn -0.000817 0.000791 0.999999
vn -0.000817 -0.000791 0.999999
vn -0.000741 -0.000877 0.999999
vn -0.000741 0.000877 0.999999
vn 0.000817 0.000791 0.999999
vn 0.000741 0.000877 0.999999
vn 0.000817 -0.000791 0.999999
vn 0.000741 -0.000877 0.999999
s off
g raam_buitenkant
usemtl initialShadingGroup
f 66/102/193 65/101/194 69/106/195 70/107/196
f 67/103/197 66/102/198 70/107/199 71/108/200
f 68/104/201 67/103/202 71/108/203 72/109/204
f 65/105/205 68/104/206 72/109/207 69/110/208
s 1
f 70/107/209 69/106/210 73/111/211 74/112/212
f 71/108/213 70/107/209 74/112/212 75/113/214
f 72/109/215 71/108/213 75/113/214 76/114/216
f 69/110/210 72/109/215 76/114/216 73/115/211
s off
f 74/112/217 73/111/218 77/116/219 78/117/220
f 75/113/221 74/112/222 78/117/223 79/118/224
f 76/114/225 75/113/226 79/118/227 80/119/228
f 73/115/229 76/114/230 80/119/231 77/120/232
s 2
f 78/117/233 77/116/234 65/121/235 66/122/236
f 79/118/237 78/117/233 66/122/236 67/123/238
f 80/119/239 79/118/237 67/123/238 68/124/240
f 77/120/234 80/119/239 68/124/240 65/125/235
