# This file uses centimeters as units for non-parametric coordinates.

mtllib stopcontact.mtl
g default
v -0.154702 0.357407 0.161912
v -0.357407 0.357407 0.161912
v -0.214073 0.214073 0.161912
v -0.500741 0.500741 0.161912
v -0.357407 0.560112 0.161912
v -0.214073 0.500741 0.161912
v -0.358889 0.714814 -0.000000
v -0.714814 0.714814 -0.000000
v -0.714814 0.714814 0.157761
v -0.358889 0.714814 0.157761
v 0.000000 0.000000 0.000000
v 0.000000 0.360841 0.000000
v -0.000000 0.360841 0.157761
v -0.000000 0.000000 0.157761
v -0.357407 0.560112 0.229235
v -0.500741 0.500741 0.229235
v -0.071474 0.071474 0.229235
v -0.071474 0.353973 0.229235
v -0.355924 0.643339 0.229235
v -0.643339 0.643339 0.229235
v 0.000000 0.714814 0.000000
v -0.156124 0.353973 0.229235
v -0.214073 0.214073 0.229235
v -0.355924 0.155316 0.229235
v -0.355924 0.071474 0.229235
v -0.154702 0.357407 0.229235
v -0.214073 0.500741 0.229235
v -0.643339 0.353973 0.229235
v -0.558690 0.353973 0.229235
v -0.560112 0.357407 0.229235
v -0.355924 0.559498 0.229235
v -0.000000 0.714814 0.157761
v -0.071474 0.643339 0.229235
v -0.560112 0.357407 0.161912
v -0.357407 0.154702 0.161912
v -0.357407 0.154702 0.229235
v -0.500741 0.214073 0.161912
v -0.358889 0.000000 0.157761
v -0.714814 0.360841 0.157761
v -0.714814 0.360841 -0.000000
v -0.358889 0.000000 -0.000000
v -0.500741 0.214073 0.229235
v -0.714814 0.000000 0.157761
v -0.643339 0.071474 0.229235
v -0.714814 0.000000 -0.000000
vt 0.500000 0.312500
vt 0.500000 0.150000
vt 0.389515 0.266735
vt 0.610485 0.045765
vt 0.656250 0.156250
vt 0.610485 0.266735
vt 0.755185 0.000000
vt 0.875000 0.000000
vt 0.875000 0.200005
vt 0.755185 0.200005
vt 0.375000 0.000000
vt 0.512011 0.000000
vt 0.512011 0.200005
vt 0.375000 0.200005
vt 0.593750 0.374929
vt 0.625000 0.374929
vt 0.625000 0.312500
vt 0.593750 0.312500
vt 0.399998 0.274998
vt 0.509609 0.274998
vt 0.600003 0.379148
vt 0.625000 0.382259
vt 0.625000 0.549995
vt 0.600003 0.475002
vt 0.509609 0.305992
vt 0.455327 0.327210
vt 0.432529 0.379148
vt 0.399998 0.379148
vt 0.500000 0.312500
vt 0.500000 0.374929
vt 0.530501 0.374929
vt 0.531250 0.374929
vt 0.531250 0.312500
vt 0.562500 0.374929
vt 0.562500 0.312500
vt 0.509609 0.475002
vt 0.509609 0.446771
vt 0.510682 0.447246
vt 0.555457 0.427445
vt 0.574004 0.379643
vt 0.573812 0.379148
vt 0.625000 0.000000
vt 0.625000 0.200005
vt 0.593427 0.374929
vt 0.600003 0.274998
vt 0.555457 0.327210
vt 0.510682 0.305471
vt 0.500000 0.000000
vt 0.343750 0.156250
vt 0.375000 0.374929
vt 0.406250 0.374929
vt 0.406250 0.312500
vt 0.375000 0.312500
vt 0.468750 0.312500
vt 0.468750 0.374929
vt 0.469073 0.374929
vt 0.389515 0.045765
vt 0.375000 0.382259
vt 0.512011 0.549995
vt 0.512011 0.750000
vt 0.625000 0.750000
vt 0.437500 0.374929
vt 0.437500 0.312500
vt 0.244815 0.200005
vt 0.244815 0.000000
vt 0.406999 0.374929
vt 0.375000 0.549995
vt 0.399998 0.475002
vt 0.375000 0.750000
vt 0.432290 0.379643
vt 0.455327 0.427445
vt 0.125000 0.000000
vt 0.125000 0.200005
vn -0.000000 0.000000 1.000000
vn -0.000000 0.000000 1.000000
vn -0.000000 0.000000 1.000000
vn -0.000000 0.000000 1.000000
vn -0.000000 0.000000 1.000000
vn -0.000000 0.000000 1.000000
vn 0.000000 1.000000 0.000000
vn 0.000000 1.000000 0.000000
vn 0.000000 1.000000 0.000000
vn 0.000000 1.000000 0.000000
vn 1.000000 0.000000 0.000000
vn 1.000000 0.000000 0.000000
vn 1.000000 0.000000 0.000000
vn 1.000000 0.000000 0.000000
vn 0.382684 -0.923880 0.000000
vn 0.382684 -0.923880 0.000000
vn 0.382684 -0.923880 0.000000
vn 0.382684 -0.923880 0.000000
vn 0.707106 0.000000 0.707107
vn 0.707106 0.000000 0.707107
vn 0.707106 0.000000 0.707107
vn 0.707106 0.000000 0.707107
vn -0.000000 0.707106 0.707107
vn -0.000000 0.707106 0.707107
vn -0.000000 0.707106 0.707107
vn -0.000000 0.707106 0.707107
vn -0.000000 0.000000 1.000000
vn -0.000000 0.000000 1.000000
vn -0.000000 0.000000 1.000000
vn -0.000000 0.000000 1.000000
vn -0.923880 0.382683 -0.000000
vn -0.923880 0.382683 -0.000000
vn -0.923880 0.382683 -0.000000
vn -0.923880 0.382683 -0.000000
vn -0.923880 0.382683 -0.000000
vn -0.923880 -0.382683 -0.000000
vn -0.923880 -0.382683 -0.000000
vn -0.923880 -0.382683 -0.000000
vn -0.923880 -0.382683 -0.000000
vn -0.000000 0.000000 1.000000
vn -0.000000 0.000000 1.000000
vn -0.000000 0.000000 1.000000
vn -0.000000 0.000000 1.000000
vn -0.000000 0.000000 1.000000
vn 0.000000 1.000000 0.000000
vn 0.000000 1.000000 0.000000
vn 1.000000 0.000000 0.000000
vn 1.000000 0.000000 0.000000
vn -0.382684 -0.923880 0.000000
vn -0.382684 -0.923880 0.000000
vn -0.382684 -0.923880 0.000000
vn -0.382684 -0.923880 0.000000
vn -0.382684 -0.923880 0.000000
vn -0.000000 0.707107 0.707107
vn -0.000000 0.707107 0.707107
vn 0.707106 0.000000 0.707107
vn 0.707107 0.000000 0.707107
vn -0.000000 0.000000 1.000000
vn -0.000000 0.000000 1.000000
vn -0.000000 0.000000 1.000000
vn -0.000000 0.000000 1.000000
vn -0.000000 0.000000 1.000000
vn -0.000000 0.000000 1.000000
vn 0.923880 -0.382684 0.000000
vn 0.923880 -0.382684 0.000000
vn 0.923880 -0.382684 0.000000
vn 0.923880 -0.382684 0.000000
vn -0.382683 0.923880 -0.000000
vn -0.382683 0.923880 -0.000000
vn -0.382683 0.923880 -0.000000
vn -0.382683 0.923880 -0.000000
vn -0.382683 0.923880 -0.000000
vn -0.000000 -0.000000 1.000000
vn -0.000000 -0.707106 0.707107
vn -0.000000 -0.707106 0.707107
vn -0.000000 -0.707106 0.707107
vn -0.000000 -0.707106 0.707107
vn -0.707107 0.000000 0.707107
vn -0.707107 0.000000 0.707107
vn -0.707107 0.000000 0.707107
vn -0.707107 0.000000 0.707107
vn 0.382683 0.923880 0.000000
vn 0.382683 0.923880 0.000000
vn 0.382683 0.923880 0.000000
vn 0.382683 0.923880 0.000000
vn -1.000000 0.000000 -0.000000
vn -1.000000 0.000000 -0.000000
vn -1.000000 0.000000 -0.000000
vn -1.000000 0.000000 -0.000000
vn 0.000000 -1.000000 0.000000
vn 0.000000 -1.000000 0.000000
vn 0.000000 -1.000000 0.000000
vn 0.000000 -1.000000 0.000000
vn 0.923880 0.382684 -0.000001
vn 0.923880 0.382684 -0.000001
vn 0.923880 0.382684 -0.000001
vn 0.923880 0.382684 -0.000001
vn 0.923880 0.382684 -0.000001
vn -0.707106 0.000000 0.707107
vn -0.707106 0.000000 0.707107
vn -0.000000 -0.707106 0.707107
vn -0.000000 -0.707106 0.707107
vn -0.000000 0.000000 1.000000
vn -0.000000 0.000000 1.000000
vn -0.000000 0.000000 1.000000
vn -0.000000 0.000000 1.000000
vn -0.000000 0.000000 1.000000
vn -1.000000 0.000000 -0.000000
vn -1.000000 0.000000 -0.000000
vn 0.000000 -1.000000 0.000000
vn 0.000000 -1.000000 0.000000
vn -0.000000 0.000000 1.000000
vn -0.000000 0.000000 1.000000
s 1
g Stopcontact
usemtl initialShadingGroup
f 1/1/1 2/2/2 3/3/3
f 4/4/4 2/2/2 5/5/5
f 6/6/6 2/2/2 1/1/1
f 5/5/5 2/2/2 6/6/6
s 3
f 7/7/7 8/8/8 9/9/9 10/10/10
s 4
f 11/11/11 12/12/12 13/13/13 14/14/14
s off
f 15/15/15 16/16/16 4/17/17 5/18/18
s 5
f 17/19/19 14/14/20 13/13/21 18/20/22
s 6
f 19/21/23 10/22/24 9/23/25 20/24/26
s 7
f 17/19/27 18/20/28 22/25/29 23/26/30
s off
f 3/29/31 23/30/32 22/31/33 26/32/34 1/33/35
f 26/32/36 27/34/37 6/35/38 1/33/39
s 7
f 28/36/40 29/37/41 30/38/42 16/39/43 20/24/44
s 3
f 21/42/45 7/7/7 10/10/10 32/43/46
s 4
f 13/13/13 12/12/12 21/42/47 32/43/48
s off
f 6/35/49 27/34/50 31/44/51 15/15/52 5/18/53
s 6
f 33/45/54 32/43/55 10/22/24 19/21/23
s 5
f 18/20/22 13/13/21 32/43/56 33/45/57
s 7
f 19/21/58 31/41/59 27/46/60 33/45/61
s 1
f 34/48/62 2/2/2 4/4/4
f 3/3/3 2/2/2 35/49/63
s off
f 16/50/64 30/51/65 34/52/66 4/53/67
f 35/54/68 36/55/69 24/56/70 23/30/71 3/29/72
s 1
f 35/49/63 2/2/2 37/57/73
f 37/57/73 2/2/2 34/48/62
s 9
f 14/14/74 17/19/75 25/28/76 38/58/77
s 10
f 39/59/78 28/36/79 20/24/80 9/23/81
s off
f 42/62/82 36/55/83 35/54/84 37/63/85
s 11
f 40/60/86 39/59/87 9/23/88 8/61/89
s 12
f 38/64/90 41/65/91 11/11/92 14/14/93
s off
f 34/52/94 30/51/95 29/66/96 42/62/97 37/63/98
s 10
f 43/67/99 44/68/100 28/36/79 39/59/78
s 9
f 38/58/77 25/28/76 44/68/101 43/67/102
s 7
f 25/28/103 24/27/104 36/70/105 42/71/106 44/68/107
s 11
f 43/67/108 39/59/87 40/60/86 45/69/109
s 12
f 45/72/110 41/65/91 38/64/90 43/73/111
s 7
f 33/45/61 27/46/60 26/47/112 22/25/29 18/20/28
f 20/24/44 16/39/43 15/40/113 31/41/59 19/21/58
f 17/19/27 23/26/30 24/27/104 25/28/103
f 44/68/107 42/71/106 29/37/41 28/36/40
