# This file uses centimeters as units for non-parametric coordinates.

mtllib telefoonstandaard.mtl
g default
v -3.014488 -0.000121 0.463841
v 3.141660 -0.000121 0.463841
v -3.296972 1.122599 0.463841
v 3.388547 1.122599 0.463841
v -3.296972 2.495244 -3.871047
v 3.388547 2.495244 -3.871047
v -3.014488 -0.000121 -3.871359
v 3.141661 -0.000121 -3.871359
v 0.552575 2.279850 -1.838686
v 1.123154 2.279850 -1.838686
v 0.653102 2.552819 -1.907353
v 1.022432 2.552819 -1.907353
v 0.653102 2.641105 -2.167752
v 1.022432 2.641105 -2.167752
v 0.552575 2.485849 -2.371065
v 1.123154 2.485849 -2.371065
v 1.352229 2.049327 -1.077482
v 2.821627 2.049327 -1.077482
v 1.611113 2.322296 -1.146148
v 2.562240 2.322296 -1.146148
v 1.611113 2.410582 -1.406547
v 2.562240 2.410582 -1.406547
v 1.352229 2.255326 -1.609861
v 2.821627 2.255326 -1.609861
v 0.552575 2.049327 -1.077482
v 1.123154 2.049327 -1.077482
v 0.653102 2.322296 -1.146148
v 1.022432 2.322296 -1.146148
v 0.653102 2.410582 -1.406547
v 1.022432 2.410582 -1.406547
v 0.552575 2.255326 -1.609861
v 1.123154 2.255326 -1.609861
v 1.392088 2.279850 -1.838686
v 1.962667 2.279850 -1.838686
v 1.492615 2.552819 -1.907353
v 1.861945 2.552819 -1.907353
v 1.492615 2.641105 -2.167752
v 1.861945 2.641105 -2.167752
v 1.392088 2.485849 -2.371065
v 1.962667 2.485849 -2.371065
v -3.296972 1.098543 0.453736
v 3.381639 1.098543 0.453736
v -3.296972 2.468236 -3.869453
v 3.381639 2.468236 -3.869453
v 3.479347 1.613335 0.516983
v -3.394679 1.613335 0.516983
v -3.394679 3.023105 -3.932699
v 3.479347 3.023105 -3.932699
v -2.246367 2.054801 -1.085361
v -3.369531 1.629027 0.500704
v -0.493281 2.052963 -1.081314
v 3.454248 1.628996 0.500736
v -2.254395 2.546283 -2.531522
v -3.389840 3.024139 -3.929568
v -0.490541 2.546601 -2.530836
v 3.467940 3.025544 -3.925316
v -0.493271 1.285499 -1.222391
v -2.246357 1.287336 -1.226438
v -0.490530 2.131916 -2.671913
v -2.254384 2.131598 -2.672599
v 2.162150 2.279850 -1.838686
v 2.732729 2.279850 -1.838686
v 2.262677 2.552819 -1.907353
v 2.632007 2.552819 -1.907353
v 2.262677 2.641105 -2.167752
v 2.632007 2.641105 -2.167752
v 2.162150 2.485849 -2.371065
v 2.732729 2.485849 -2.371065
vt 0.375000 0.000000
vt 0.625000 0.000000
vt 0.375000 0.250000
vt 0.625000 0.250000
vt 0.375000 0.500000
vt 0.625000 0.500000
vt 0.375000 0.750000
vt 0.625000 0.750000
vt 0.375000 1.000000
vt 0.625000 1.000000
vt 0.875000 0.000000
vt 0.875000 0.250000
vt 0.125000 0.000000
vt 0.125000 0.250000
vt 0.375000 0.000000
vt 0.625000 0.000000
vt 0.625000 0.250000
vt 0.375000 0.250000
vt 0.625000 0.500000
vt 0.375000 0.500000
vt 0.625000 0.750000
vt 0.375000 0.750000
vt 0.625000 1.000000
vt 0.375000 1.000000
vt 0.875000 0.000000
vt 0.875000 0.250000
vt 0.125000 0.000000
vt 0.125000 0.250000
vt 0.375000 0.000000
vt 0.625000 0.000000
vt 0.625000 0.250000
vt 0.375000 0.250000
vt 0.625000 0.500000
vt 0.375000 0.500000
vt 0.625000 0.750000
vt 0.375000 0.750000
vt 0.625000 1.000000
vt 0.375000 1.000000
vt 0.875000 0.000000
vt 0.875000 0.250000
vt 0.125000 0.000000
vt 0.125000 0.250000
vt 0.375000 0.000000
vt 0.625000 0.000000
vt 0.625000 0.250000
vt 0.375000 0.250000
vt 0.625000 0.500000
vt 0.375000 0.500000
vt 0.625000 0.750000
vt 0.375000 0.750000
vt 0.625000 1.000000
vt 0.375000 1.000000
vt 0.875000 0.000000
vt 0.875000 0.250000
vt 0.125000 0.000000
vt 0.125000 0.250000
vt 0.375000 0.000000
vt 0.625000 0.000000
vt 0.625000 0.250000
vt 0.375000 0.250000
vt 0.625000 0.500000
vt 0.375000 0.500000
vt 0.625000 0.750000
vt 0.375000 0.750000
vt 0.625000 1.000000
vt 0.375000 1.000000
vt 0.875000 0.000000
vt 0.875000 0.250000
vt 0.125000 0.000000
vt 0.125000 0.250000
vt 0.375000 0.000000
vt 0.625000 0.000000
vt 0.625000 0.135385
vt 0.375000 0.135385
vt 0.375000 0.614615
vt 0.625000 0.614615
vt 0.625000 0.750000
vt 0.375000 0.750000
vt 0.875000 0.000000
vt 0.875000 0.135385
vt 0.125000 0.000000
vt 0.125000 0.135385
vt 0.018588 0.011200
vt -0.001801 -0.019337
vt 1.003427 -0.019348
vt 0.984879 0.008412
vt 0.015069 0.967479
vt -0.003312 1.002007
vt 1.004450 1.001522
vt 0.986085 0.967018
vt 0.018588 0.011200
vt 0.984879 0.008412
vt 0.986085 0.967018
vt 0.015069 0.967479
vt 0.624932 0.146371
vt 0.375090 0.146404
vt 0.125098 0.137517
vt 0.375094 0.612490
vt 0.624845 0.609612
vt 0.874774 0.140413
vt 0.375000 0.000000
vt 0.625000 0.000000
vt 0.625000 0.250000
vt 0.375000 0.250000
vt 0.625000 0.500000
vt 0.375000 0.500000
vt 0.625000 0.750000
vt 0.375000 0.750000
vt 0.625000 1.000000
vt 0.375000 1.000000
vt 0.875000 0.000000
vt 0.875000 0.250000
vt 0.125000 0.000000
vt 0.125000 0.250000
vn 0.000000 0.000000 1.000000
vn 0.000000 0.000000 1.000000
vn 0.000000 0.000000 1.000000
vn 0.000000 0.000000 1.000000
vn 0.000000 0.000125 -1.000000
vn 0.000000 0.000125 -1.000000
vn 0.000000 0.000125 -1.000000
vn 0.000000 0.000125 -1.000000
vn 0.000000 -1.000000 0.000000
vn 0.000000 -1.000000 0.000000
vn 0.000000 -1.000000 0.000000
vn 0.000000 -1.000000 0.000000
vn 0.990589 -0.135187 -0.021403
vn 0.990589 -0.135187 -0.021403
vn 0.990589 -0.135187 -0.021403
vn 0.990589 -0.135187 -0.021403
vn -0.987733 -0.154234 -0.024418
vn -0.987733 -0.154233 -0.024418
vn -0.987733 -0.154233 -0.024418
vn -0.987733 -0.154233 -0.024418
vn 0.000000 0.243953 0.969787
vn 0.000000 0.243953 0.969787
vn 0.000000 0.243953 0.969787
vn 0.000000 0.243953 0.969787
vn 0.000000 0.947050 0.321087
vn 0.000000 0.947050 0.321087
vn 0.000000 0.947050 0.321087
vn 0.000000 0.947050 0.321087
vn 0.000000 0.794772 -0.606909
vn 0.000000 0.794772 -0.606909
vn 0.000000 0.794772 -0.606909
vn 0.000000 0.794772 -0.606909
vn 0.000000 -0.932617 -0.360868
vn 0.000000 -0.932617 -0.360868
vn 0.000000 -0.932617 -0.360868
vn 0.000000 -0.932617 -0.360868
vn 0.912148 0.384241 0.142633
vn 0.912148 0.384241 0.142633
vn 0.912148 0.384241 0.142633
vn 0.912148 0.384241 0.142633
vn -0.912446 0.383620 0.142402
vn -0.912446 0.383620 0.142402
vn -0.912446 0.383620 0.142402
vn -0.912446 0.383620 0.142402
vn 0.000000 0.243953 0.969787
vn 0.000000 0.243953 0.969787
vn 0.000000 0.243953 0.969787
vn 0.000000 0.243953 0.969787
vn 0.000000 0.947050 0.321086
vn 0.000000 0.947050 0.321086
vn 0.000000 0.947050 0.321086
vn 0.000000 0.947050 0.321086
vn 0.000000 0.794771 -0.606910
vn 0.000000 0.794771 -0.606910
vn 0.000000 0.794771 -0.606910
vn 0.000000 0.794771 -0.606910
vn 0.000000 -0.932617 -0.360868
vn 0.000000 -0.932617 -0.360868
vn 0.000000 -0.932617 -0.360868
vn 0.000000 -0.932617 -0.360868
vn 0.653857 0.709325 0.263306
vn 0.653857 0.709325 0.263306
vn 0.653857 0.709325 0.263306
vn 0.653857 0.709325 0.263306
vn -0.654583 0.708735 0.263087
vn -0.654583 0.708735 0.263087
vn -0.654583 0.708735 0.263087
vn -0.654583 0.708735 0.263087
vn 0.000000 0.243953 0.969787
vn 0.000000 0.243953 0.969787
vn 0.000000 0.243953 0.969787
vn 0.000000 0.243953 0.969787
vn 0.000000 0.947050 0.321086
vn 0.000000 0.947050 0.321086
vn 0.000000 0.947050 0.321086
vn 0.000000 0.947050 0.321086
vn 0.000000 0.794771 -0.606909
vn 0.000000 0.794771 -0.606909
vn 0.000000 0.794771 -0.606909
vn 0.000000 0.794771 -0.606909
vn 0.000000 -0.932617 -0.360868
vn 0.000000 -0.932617 -0.360868
vn 0.000000 -0.932617 -0.360868
vn 0.000000 -0.932617 -0.360868
vn 0.912148 0.384242 0.142633
vn 0.912148 0.384242 0.142633
vn 0.912148 0.384242 0.142633
vn 0.912148 0.384242 0.142633
vn -0.912445 0.383621 0.142403
vn -0.912445 0.383621 0.142403
vn -0.912445 0.383621 0.142403
vn -0.912445 0.383621 0.142403
vn 0.000000 0.243953 0.969787
vn 0.000000 0.243953 0.969787
vn 0.000000 0.243953 0.969787
vn 0.000000 0.243953 0.969787
vn 0.000000 0.947050 0.321087
vn 0.000000 0.947050 0.321087
vn 0.000000 0.947050 0.321087
vn 0.000000 0.947050 0.321087
vn 0.000000 0.794771 -0.606909
vn 0.000000 0.794771 -0.606909
vn 0.000000 0.794771 -0.606909
vn 0.000000 0.794771 -0.606909
vn 0.000000 -0.932617 -0.360868
vn 0.000000 -0.932617 -0.360868
vn 0.000000 -0.932617 -0.360868
vn 0.000000 -0.932617 -0.360868
vn 0.912148 0.384242 0.142633
vn 0.912148 0.384242 0.142633
vn 0.912148 0.384242 0.142633
vn 0.912148 0.384242 0.142633
vn -0.912446 0.383620 0.142402
vn -0.912446 0.383620 0.142402
vn -0.912446 0.383620 0.142402
vn -0.912446 0.383620 0.142402
vn 0.000000 -0.121942 0.992537
vn 0.000000 -0.121942 0.992537
vn 0.000000 -0.121942 0.992537
vn 0.000000 -0.121942 0.992537
vn 0.000000 -0.113252 -0.993566
vn 0.000000 -0.113252 -0.993566
vn 0.000000 -0.113252 -0.993566
vn 0.000000 -0.113252 -0.993566
vn 0.982128 -0.179423 -0.056846
vn 0.982128 -0.179423 -0.056846
vn 0.982128 -0.179423 -0.056846
vn 0.982128 -0.179423 -0.056846
vn -0.982128 -0.179423 -0.056846
vn -0.982128 -0.179423 -0.056846
vn -0.982128 -0.179423 -0.056846
vn -0.982128 -0.179423 -0.056846
vn 0.017441 0.960978 0.276073
vn 0.004139 0.957455 0.288552
vn -0.007053 0.951469 0.307665
vn -0.007642 0.958443 0.285181
vn 0.017773 0.948328 0.316794
vn 0.005795 0.950146 0.311751
vn -0.007890 0.952211 0.305340
vn -0.008081 0.949466 0.313766
vn -0.000305 0.863580 0.504212
vn -0.000305 0.863580 0.504212
vn -0.000305 0.863580 0.504212
vn -0.000305 0.863580 0.504212
vn 0.000000 0.719959 0.694017
vn 0.000000 0.719959 0.694017
vn -0.370859 0.885319 0.280490
vn -0.370859 0.885319 0.280490
vn 0.000000 0.949522 -0.313701
vn 0.000000 0.949522 -0.313701
vn 0.370870 0.885313 0.280493
vn 0.370870 0.885313 0.280493
vn 0.002460 0.180792 -0.983518
vn 0.002460 0.180792 -0.983518
vn 0.002460 0.180792 -0.983518
vn 0.002460 0.180792 -0.983518
vn -0.999999 0.000390 -0.001710
vn -0.999999 0.000390 -0.001710
vn -0.999999 0.000390 -0.001710
vn -0.999999 0.000390 -0.001710
vn -0.000310 -0.322075 0.946714
vn -0.000310 -0.322075 0.946714
vn -0.000310 -0.322075 0.946714
vn -0.000310 -0.322075 0.946714
vn 0.999987 0.001209 -0.004992
vn 0.999987 0.001209 -0.004992
vn 0.999987 0.001209 -0.004992
vn 0.999987 0.001209 -0.004992
vn 0.000000 0.243953 0.969787
vn 0.000000 0.243953 0.969787
vn 0.000000 0.243953 0.969787
vn 0.000000 0.243953 0.969787
vn 0.000000 0.947050 0.321087
vn 0.000000 0.947050 0.321087
vn 0.000000 0.947050 0.321087
vn 0.000000 0.947050 0.321087
vn 0.000000 0.794772 -0.606909
vn 0.000000 0.794772 -0.606909
vn 0.000000 0.794772 -0.606909
vn 0.000000 0.794772 -0.606909
vn 0.000000 -0.932617 -0.360868
vn 0.000000 -0.932617 -0.360868
vn 0.000000 -0.932617 -0.360868
vn 0.000000 -0.932617 -0.360868
vn 0.912148 0.384242 0.142633
vn 0.912148 0.384242 0.142633
vn 0.912148 0.384242 0.142633
vn 0.912148 0.384242 0.142633
vn -0.912445 0.383621 0.142403
vn -0.912445 0.383621 0.142403
vn -0.912445 0.383621 0.142403
vn -0.912445 0.383621 0.142403
s off
g Telefoonstandaard
usemtl initialShadingGroup
f 1/1/1 2/2/2 4/4/3 3/3/4
f 5/5/5 6/6/6 8/8/7 7/7/8
f 7/7/9 8/8/10 2/10/11 1/9/12
f 2/2/13 8/11/14 6/12/15 4/4/16
f 7/13/17 1/1/18 3/3/19 5/14/20
f 9/15/21 10/16/22 12/17/23 11/18/24
f 11/18/25 12/17/26 14/19/27 13/20/28
f 13/20/29 14/19/30 16/21/31 15/22/32
f 15/22/33 16/21/34 10/23/35 9/24/36
f 10/16/37 16/25/38 14/26/39 12/17/40
f 15/27/41 9/15/42 11/18/43 13/28/44
f 17/29/45 18/30/46 20/31/47 19/32/48
f 19/32/49 20/31/50 22/33/51 21/34/52
f 21/34/53 22/33/54 24/35/55 23/36/56
f 23/36/57 24/35/58 18/37/59 17/38/60
f 18/30/61 24/39/62 22/40/63 20/31/64
f 23/41/65 17/29/66 19/32/67 21/42/68
f 25/43/69 26/44/70 28/45/71 27/46/72
f 27/46/73 28/45/74 30/47/75 29/48/76
f 29/48/77 30/47/78 32/49/79 31/50/80
f 31/50/81 32/49/82 26/51/83 25/52/84
f 26/44/85 32/53/86 30/54/87 28/45/88
f 31/55/89 25/43/90 27/46/91 29/56/92
f 33/57/93 34/58/94 36/59/95 35/60/96
f 35/60/97 36/59/98 38/61/99 37/62/100
f 37/62/101 38/61/102 40/63/103 39/64/104
f 39/64/105 40/63/106 34/65/107 33/66/108
f 34/58/109 40/67/110 38/68/111 36/59/112
f 39/69/113 33/57/114 35/60/115 37/70/116
f 41/71/117 42/72/118 45/73/119 46/74/120
f 47/75/121 48/76/122 44/77/123 43/78/124
f 42/72/125 44/79/126 48/80/127 45/73/128
f 43/81/129 41/71/130 46/74/131 47/82/132
s 1
f 49/83/133 50/84/134 52/85/135 51/86/136
f 50/84/134 49/83/133 53/87/137 54/88/138
f 51/86/136 52/85/135 56/89/139 55/90/140
f 54/88/138 53/87/137 55/90/140 56/89/139
s off
f 58/91/141 57/92/142 59/93/143 60/94/144
s 1
f 46/74/145 45/73/146 52/95/135 50/96/134
f 47/82/147 46/74/148 50/96/134 54/97/138
f 54/98/138 56/99/139 48/76/149 47/75/150
f 45/73/151 48/80/152 56/100/139 52/95/135
s off
f 49/83/153 51/86/154 57/92/155 58/91/156
f 51/86/157 55/90/158 59/93/159 57/92/160
f 55/90/161 53/87/162 60/94/163 59/93/164
f 53/87/165 49/83/166 58/91/167 60/94/168
f 61/101/169 62/102/170 64/103/171 63/104/172
f 63/104/173 64/103/174 66/105/175 65/106/176
f 65/106/177 66/105/178 68/107/179 67/108/180
f 67/108/181 68/107/182 62/109/183 61/110/184
f 62/102/185 68/111/186 66/112/187 64/103/188
f 67/113/189 61/101/190 63/104/191 65/114/192
