# This file uses centimeters as units for non-parametric coordinates.

mtllib tv modum.mtl
g default
v -1.176101 0.455210 -0.733869
v 1.176104 0.455210 -0.733869
v -1.176101 -0.000075 -0.733869
v 1.176104 -0.000075 -0.733869
v -0.484888 0.307846 0.623516
v -1.176101 -0.000075 0.620059
v 0.484891 0.307846 0.623516
v 1.176104 -0.000075 0.620059
v -0.484888 0.359291 0.623516
v -1.176101 0.455210 0.620059
v 0.484891 0.359291 0.623516
v 1.176104 0.455210 0.620059
v 0.513669 0.307846 0.163268
v -0.456109 0.307846 0.163268
v 0.513669 0.359291 0.163268
v -0.456109 0.359291 0.163268
vt 0.625000 0.500000
vt 0.375000 0.750000
vt 0.355615 -0.000000
vt 0.387096 0.062494
vt 0.375000 0.269385
vt 0.387096 0.187506
vt 0.644385 0.250000
vt 0.612904 0.062494
vt 0.612904 0.187506
vt 0.625000 0.269385
vt 0.375000 0.500000
vt 0.625000 0.750000
vt 0.625000 0.980615
vt 0.375000 0.980615
vt 0.644385 0.000000
vt 0.875000 0.000000
vt 0.875000 0.250000
vt 0.125000 0.000000
vt 0.355615 0.250000
vt 0.125000 0.250000
vt 0.387096 0.062494
vt 0.612904 0.062494
vt 0.612904 0.187506
vt 0.387096 0.187506
vn 0.000000 0.000000 -1.000000
vn 0.000000 0.000000 -1.000000
vn 0.000000 0.000000 -1.000000
vn 0.000000 0.000000 -1.000000
vn 0.000000 -0.011226 0.999937
vn 0.000000 -0.011226 0.999937
vn 0.000000 -0.011226 0.999937
vn 0.000000 -0.011226 0.999937
vn -0.005001 0.000000 0.999988
vn -0.005001 0.000000 0.999987
vn -0.005001 0.000000 0.999988
vn -0.005001 0.000000 0.999987
vn 0.005001 0.000000 0.999987
vn 0.005001 0.000000 0.999987
vn 0.005001 0.000000 0.999987
vn 0.005001 0.000000 0.999987
vn 0.000000 0.036018 0.999351
vn 0.000000 0.036018 0.999351
vn 0.000000 0.036018 0.999351
vn 0.000000 0.036018 0.999351
vn 0.000000 0.000000 1.000000
vn 0.000000 0.000000 1.000000
vn 0.000000 0.000000 1.000000
vn 0.000000 0.000000 1.000000
vn 0.000000 1.000000 0.000000
vn 0.000000 1.000000 0.000000
vn 0.000000 1.000000 0.000000
vn 0.000000 1.000000 0.000000
vn 0.000000 -1.000000 0.000000
vn 0.000000 -1.000000 0.000000
vn 0.000000 -1.000000 0.000000
vn 0.000000 -1.000000 0.000000
vn 1.000000 0.000000 0.000000
vn 1.000000 0.000000 0.000000
vn 1.000000 0.000000 0.000000
vn 1.000000 0.000000 0.000000
vn -1.000000 0.000000 0.000000
vn -1.000000 0.000000 0.000000
vn -1.000000 0.000000 0.000000
vn -1.000000 0.000000 0.000000
vn 0.000000 1.000000 0.000000
vn 0.000000 1.000000 0.000000
vn 0.000000 1.000000 0.000000
vn 0.000000 1.000000 0.000000
vn -0.998051 0.000000 -0.062406
vn -0.998051 0.000000 -0.062406
vn -0.998051 0.000000 -0.062406
vn -0.998051 0.000000 -0.062406
vn 0.000000 -1.000000 0.000000
vn 0.000000 -1.000000 0.000000
vn 0.000000 -1.000000 0.000000
vn 0.000000 -1.000000 0.000000
vn 0.998051 0.000000 0.062406
vn 0.998051 0.000000 0.062406
vn 0.998051 0.000000 0.062406
vn 0.998051 0.000000 0.062406
s off
g tv_modum
usemtl initialShadingGroup
f 1/11/1 2/1/2 4/12/3 3/2/4
f 5/4/5 6/3/6 8/15/7 7/8/8
f 6/3/9 5/4/10 9/6/11 10/5/12
f 7/8/13 8/15/14 12/7/15 11/9/16
f 10/5/17 9/6/18 11/9/19 12/7/20
f 14/21/21 13/22/22 15/23/23 16/24/24
f 10/5/25 12/10/26 2/1/27 1/11/28
f 3/2/29 4/12/30 8/13/31 6/14/32
f 8/15/33 4/16/34 2/17/35 12/7/36
f 3/18/37 6/3/38 10/19/39 1/20/40
f 5/4/41 7/8/42 13/22/43 14/21/44
f 7/8/45 11/9/46 15/23/47 13/22/48
f 11/9/49 9/6/50 16/24/51 15/23/52
f 9/6/53 5/4/54 14/21/55 16/24/56
