# This file uses centimeters as units for non-parametric coordinates.

mtllib tile fancy.mtl
g default
v -2.398584 0.024444 -2.656417
v 2.398584 0.024444 -2.656417
v -2.217592 0.239953 -2.837409
v 2.217592 0.239953 -2.837409
v -2.217592 0.239953 -7.272593
v 2.217592 0.239953 -7.272593
v -2.398584 0.024444 -7.453586
v 2.398584 0.024444 -7.453586
v -2.309527 0.185755 -2.745474
v 2.309527 0.185755 -2.745474
v 2.309527 0.185755 -7.364528
v -2.309527 0.185755 -7.364528
v -2.398584 0.143110 -2.656417
v 2.398584 0.143110 -2.656417
v 2.398584 0.143110 -7.453586
v -2.398584 0.143110 -7.453586
v -1.687057 0.239953 -3.405574
v 1.687057 0.239953 -3.405574
v 1.687057 0.239953 -6.704429
v -1.687057 0.239953 -6.704429
v -1.403913 0.239953 -3.682401
v 1.403913 0.239953 -3.682401
v 1.403913 0.239953 -6.427600
v -1.403913 0.239953 -6.427600
v -1.687057 0.175149 -3.405574
v 1.687057 0.175149 -3.405574
v 1.403913 0.175149 -3.682401
v -1.403913 0.175149 -3.682401
v 1.687057 0.175149 -6.704429
v 1.403913 0.175149 -6.427600
v -1.687057 0.175149 -6.704429
v -1.403913 0.175149 -6.427600
vt 0.375000 0.000000
vt 0.625000 0.000000
vt 0.375000 0.250000
vt 0.625000 0.250000
vt 0.375000 0.500000
vt 0.625000 0.500000
vt 0.375000 0.750000
vt 0.625000 0.750000
vt 0.375000 1.000000
vt 0.625000 1.000000
vt 0.875000 0.000000
vt 0.875000 0.250000
vt 0.125000 0.000000
vt 0.125000 0.250000
vt 0.375000 0.175000
vt 0.625000 0.175000
vt 0.625000 0.575000
vt 0.875000 0.175000
vt 0.125000 0.175000
vt 0.375000 0.575000
vt 0.375000 0.087500
vt 0.625000 0.087500
vt 0.625000 0.662500
vt 0.875000 0.087500
vt 0.125000 0.087500
vt 0.375000 0.662500
vt 0.375000 0.250000
vt 0.625000 0.250000
vt 0.625000 0.500000
vt 0.375000 0.500000
vt 0.375000 0.250000
vt 0.625000 0.250000
vt 0.625000 0.500000
vt 0.375000 0.500000
vt 0.375000 0.250000
vt 0.625000 0.250000
vt 0.625000 0.250000
vt 0.375000 0.250000
vt 0.625000 0.500000
vt 0.625000 0.500000
vt 0.375000 0.500000
vt 0.375000 0.500000
vn 0.000000 0.891284 0.453445
vn 0.000000 0.891284 0.453445
vn 0.000000 0.861446 0.507849
vn 0.000000 0.861446 0.507849
vn 0.000000 1.000000 0.000000
vn 0.000000 1.000000 0.000000
vn 0.000000 1.000000 0.000000
vn 0.000000 1.000000 0.000000
vn 0.000000 0.861446 -0.507850
vn 0.000000 0.861446 -0.507850
vn 0.000000 0.891285 -0.453444
vn 0.000000 0.891285 -0.453444
vn 0.000000 -1.000000 0.000000
vn 0.000000 -1.000000 0.000000
vn 0.000000 -1.000000 0.000000
vn 0.000000 -1.000000 0.000000
vn 0.453446 0.891284 0.000000
vn 0.453445 0.891284 0.000000
vn 0.507848 0.861447 0.000000
vn 0.507848 0.861447 0.000000
vn -0.453446 0.891284 0.000000
vn -0.453446 0.891284 0.000000
vn -0.507848 0.861447 0.000000
vn -0.507848 0.861447 0.000000
vn 0.000000 0.313683 0.949528
vn 0.000000 0.313683 0.949528
vn 0.949529 0.313681 0.000000
vn 0.949529 0.313680 0.000000
vn 0.000000 0.313685 -0.949527
vn 0.000000 0.313685 -0.949527
vn -0.949529 0.313680 0.000000
vn -0.949529 0.313681 0.000000
vn 0.000000 0.000000 1.000000
vn 0.000000 0.000000 1.000000
vn 1.000000 0.000000 0.000000
vn 1.000000 0.000000 0.000000
vn 0.000000 0.000000 -1.000000
vn 0.000000 0.000000 -1.000000
vn -1.000000 0.000000 0.000000
vn -1.000000 0.000000 0.000000
vn 0.000000 1.000000 0.000000
vn 0.000000 1.000000 0.000000
vn 0.000000 1.000000 0.000000
vn 0.000000 1.000000 0.000000
vn 0.000000 1.000000 -0.000000
vn 0.000000 1.000000 -0.000000
vn 0.000000 1.000000 -0.000000
vn 0.000000 1.000000 -0.000000
vn 0.000000 1.000000 -0.000000
vn 0.000000 1.000000 -0.000000
vn 0.000000 1.000000 -0.000000
vn 0.000000 1.000000 -0.000000
vn 0.000000 1.000000 0.000000
vn 0.000000 1.000000 0.000000
vn 0.000000 1.000000 0.000000
vn 0.000000 1.000000 0.000000
vn 0.000000 0.000000 -1.000000
vn 0.000000 0.000000 -1.000000
vn 0.000000 0.000000 -1.000000
vn 0.000000 0.000000 -1.000000
vn 0.000000 0.000000 1.000000
vn 0.000000 0.000000 1.000000
vn 0.000000 0.000000 1.000000
vn 0.000000 0.000000 1.000000
vn -1.000000 0.000000 0.000000
vn -1.000000 0.000000 0.000000
vn -1.000000 0.000000 0.000000
vn -1.000000 0.000000 0.000000
vn 1.000000 0.000000 0.000000
vn 1.000000 0.000000 0.000000
vn 1.000000 0.000000 0.000000
vn 1.000000 0.000000 0.000000
vn 0.000000 0.000000 1.000000
vn 0.000000 0.000000 1.000000
vn 0.000000 0.000000 1.000000
vn 0.000000 0.000000 1.000000
vn 0.000000 0.000000 -1.000000
vn 0.000000 0.000000 -1.000000
vn 0.000000 0.000000 -1.000000
vn 0.000000 0.000000 -1.000000
vn 1.000000 0.000000 0.000000
vn 1.000000 0.000000 0.000000
vn 1.000000 0.000000 0.000000
vn 1.000000 0.000000 0.000000
vn -1.000000 0.000000 0.000000
vn -1.000000 0.000000 0.000000
vn -1.000000 0.000000 0.000000
vn -1.000000 0.000000 0.000000
s 1
g Fancy
usemtl initialShadingGroup
f 9/15/1 10/16/2 4/4/3 3/3/4
s off
f 21/31/5 22/32/6 23/33/7 24/34/8
s 2
f 5/5/9 6/6/10 11/17/11 12/20/12
s off
f 7/7/13 8/8/14 2/10/15 1/9/16
s 3
f 10/16/17 11/18/18 6/12/19 4/4/20
s 4
f 12/19/21 9/15/22 3/3/23 5/14/24
s 1
f 13/21/25 14/22/26 10/16/2 9/15/1
s 3
f 14/22/27 15/24/28 11/18/18 10/16/17
s 2
f 12/20/12 11/17/11 15/23/29 16/26/30
s 4
f 16/25/31 13/21/32 9/15/22 12/19/21
s 1
f 1/1/33 2/2/34 14/22/26 13/21/25
s 3
f 2/2/35 8/11/36 15/24/28 14/22/27
s 2
f 16/26/30 15/23/29 8/8/37 7/7/38
s 4
f 7/13/39 1/1/40 13/21/32 16/25/31
s 5
f 3/3/41 4/4/42 18/28/43 17/27/44
f 4/4/42 6/6/45 19/29/46 18/28/43
f 6/6/45 5/5/47 20/30/48 19/29/46
f 5/5/47 3/3/41 17/27/44 20/30/48
s 6
f 25/35/49 26/36/50 27/37/51 28/38/52
f 26/36/50 29/39/53 30/40/54 27/37/51
f 29/39/53 31/41/55 32/42/56 30/40/54
f 31/41/55 25/35/49 28/38/52 32/42/56
s off
f 17/27/57 18/28/58 26/36/59 25/35/60
f 22/32/61 21/31/62 28/38/63 27/37/64
f 18/28/65 19/29/66 29/39/67 26/36/68
f 23/33/69 22/32/70 27/37/71 30/40/72
f 19/29/73 20/30/74 31/41/75 29/39/76
f 24/34/77 23/33/78 30/40/79 32/42/80
f 20/30/81 17/27/82 25/35/83 31/41/84
f 21/31/85 24/34/86 32/42/87 28/38/88
